<?xml version="1.0" encoding="UTF-8" standalone="no"?>
<!-- Created with Inkscape (http://www.inkscape.org/) -->

<svg
        xmlns:inkscape="http://www.inkscape.org/namespaces/inkscape"
        xmlns:sodipodi="http://sodipodi.sourceforge.net/DTD/sodipodi-0.dtd"
        width="37.234051mm"
        height="19.894989mm"
        viewBox="0 0 37.234051 19.894989"
        version="1.1"
        id="svg674"
        inkscape:version="1.2.2 (b0a8486541, 2022-12-01)"
        sodipodi:docname="image.svg"
        xmlns="http://www.w3.org/2000/svg">
    <sodipodi:namedview
            id="namedview676"
            pagecolor="#ffffff"
            bordercolor="#000000"
            borderopacity="0.25"
            inkscape:showpageshadow="2"
            inkscape:pageopacity="0.0"
            inkscape:pagecheckerboard="0"
            inkscape:deskcolor="#d1d1d1"
            inkscape:document-units="mm"
            showgrid="false"
            showguides="true"
            inkscape:zoom="1.4956419"
            inkscape:cx="538.89905"
            inkscape:cy="509.81455"
            inkscape:window-width="1920"
            inkscape:window-height="1011"
            inkscape:window-x="0"
            inkscape:window-y="0"
            inkscape:window-maximized="1"
            inkscape:current-layer="g2801">
        <sodipodi:guide
                position="40.757631,76.295658"
                orientation="1,0"
                id="guide2423"
                inkscape:locked="false"/>
        <sodipodi:guide
                position="121.50332,70.001078"
                orientation="1,0"
                id="guide2425"
                inkscape:locked="false"/>
        <sodipodi:guide
                position="29.349967,64.906668"
                orientation="0,-1"
                id="guide2427"
                inkscape:locked="false"/>
        <sodipodi:guide
                position="29.213374,35.129359"
                orientation="0,-1"
                id="guide2429"
                inkscape:locked="false"/>
        <sodipodi:guide
                position="52.570811,44.964069"
                orientation="0,-1"
                id="guide2431"
                inkscape:locked="false"/>
        <sodipodi:guide
                position="-1.5237729,69.653198"
                orientation="1,0"
                id="guide2433"
                inkscape:locked="false"/>
        <sodipodi:guide
                position="20.061631,59.716129"
                orientation="0,-1"
                id="guide2435"
                inkscape:locked="false"/>
        <sodipodi:guide
                position="22.930088,39.773529"
                orientation="0,-1"
                id="guide2437"
                inkscape:locked="false"/>
        <sodipodi:guide
                position="35.737793,54.154349"
                orientation="1,0"
                id="guide2439"
                inkscape:locked="false"/>
    </sodipodi:namedview>
    <defs
            id="defs671">
        <linearGradient
                id="linearGradient1715"
                inkscape:swatch="solid">
            <stop
                    style="stop-color:#000000;stop-opacity:1;"
                    offset="0"
                    id="stop1713"/>
        </linearGradient>
    </defs>
    <g
            inkscape:label="Capa 1"
            inkscape:groupmode="layer"
            id="layer1"
            transform="translate(-59.299009,-144.99789)">
        <g
                id="g2459">
            <g
                    id="g2765">
                <text
                        xml:space="preserve"
                        style="font-size:31.2416px;font-family:Yrsa;-inkscape-font-specification:'Yrsa, Normal';fill:#bda8ca;fill-opacity:1;stroke:#37194a;stroke-width:0.368997;stroke-dasharray:none;stroke-opacity:1"
                        x="57.953213"
                        y="122.543"
                        id="text2059"><tspan
             sodipodi:role="line"
             id="tspan2057"
             style="fill:#bda8ca;fill-opacity:1;stroke:#37194a;stroke-width:0.368997;stroke-dasharray:none;stroke-opacity:1"
             x="57.953213"
             y="122.543">&lt;?&gt;</tspan></text>
                <text
                        xml:space="preserve"
                        style="font-style:normal;font-variant:normal;font-weight:normal;font-stretch:normal;font-size:26.5299px;font-family:Ramaraja;-inkscape-font-specification:'Ramaraja, Normal';font-variant-ligatures:normal;font-variant-caps:normal;font-variant-numeric:normal;font-variant-east-asian:normal;fill:#000000;fill-opacity:1;stroke:#37194a;stroke-width:0;stroke-dasharray:none;stroke-opacity:1"
                        x="100.03356"
                        y="119.73508"
                        id="text2115"><tspan
             sodipodi:role="line"
             id="tspan2113"
             style="font-style:normal;font-variant:normal;font-weight:normal;font-stretch:normal;font-size:26.5299px;font-family:Ramaraja;-inkscape-font-specification:'Ramaraja, Normal';font-variant-ligatures:normal;font-variant-caps:normal;font-variant-numeric:normal;font-variant-east-asian:normal;fill:#000000;fill-opacity:1;stroke-width:0;stroke-dasharray:none"
             x="100.03356"
             y="119.73508"><tspan
               style="font-style:normal;font-variant:normal;font-weight:normal;font-stretch:normal;font-size:35.2778px;font-family:Ramaraja;-inkscape-font-specification:'Ramaraja, Normal';font-variant-ligatures:normal;font-variant-caps:normal;font-variant-numeric:normal;font-variant-east-asian:normal"
               id="tspan2753">M</tspan><tspan
                        style="font-style:normal;font-variant:normal;font-weight:normal;font-stretch:normal;font-size:17.6389px;font-family:Ramaraja;-inkscape-font-specification:'Ramaraja, Normal';font-variant-ligatures:normal;font-variant-caps:normal;font-variant-numeric:normal;font-variant-east-asian:normal"
                        id="tspan2755">atriarch</tspan></tspan></text>
                <text
                        xml:space="preserve"
                        style="font-size:20.0498px;font-family:Yrsa;-inkscape-font-specification:'Yrsa, Normal';fill:#000000;fill-opacity:1;stroke:#37194a;stroke-width:0;stroke-dasharray:none;stroke-opacity:1"
                        x="99.981499"
                        y="126.50138"
                        id="text2421"><tspan
             sodipodi:role="line"
             id="tspan2419"
             style="font-style:normal;font-variant:normal;font-weight:normal;font-stretch:normal;font-size:6.9617px;font-family:Pagul;-inkscape-font-specification:'Pagul, Normal';font-variant-ligatures:normal;font-variant-caps:normal;font-variant-numeric:normal;font-variant-east-asian:normal;stroke-width:0"
             x="99.981499"
             y="126.50138">The Object Mother Factory</tspan></text>
            </g>
            <g
                    id="g2783">
                <text
                        xml:space="preserve"
                        style="font-size:31.2416px;font-family:Yrsa;-inkscape-font-specification:'Yrsa, Normal';fill:#bda8ca;fill-opacity:1;stroke:#37194a;stroke-width:0.368997;stroke-dasharray:none;stroke-opacity:1"
                        x="57.953213"
                        y="122.543"
                        id="text2769"><tspan
             sodipodi:role="line"
             id="tspan2767"
             style="fill:#bda8ca;fill-opacity:1;stroke:#37194a;stroke-width:0.368997;stroke-dasharray:none;stroke-opacity:1"
             x="57.953213"
             y="122.543">&lt;?&gt;</tspan></text>
                <text
                        xml:space="preserve"
                        style="font-style:normal;font-variant:normal;font-weight:normal;font-stretch:normal;font-size:26.5299px;font-family:Ramaraja;-inkscape-font-specification:'Ramaraja, Normal';font-variant-ligatures:normal;font-variant-caps:normal;font-variant-numeric:normal;font-variant-east-asian:normal;fill:#000000;fill-opacity:1;stroke:#37194a;stroke-width:0;stroke-dasharray:none;stroke-opacity:1"
                        x="100.03356"
                        y="119.73508"
                        id="text2777"><tspan
             sodipodi:role="line"
             id="tspan2775"
             style="font-style:normal;font-variant:normal;font-weight:normal;font-stretch:normal;font-size:26.5299px;font-family:Ramaraja;-inkscape-font-specification:'Ramaraja, Normal';font-variant-ligatures:normal;font-variant-caps:normal;font-variant-numeric:normal;font-variant-east-asian:normal;fill:#000000;fill-opacity:1;stroke-width:0;stroke-dasharray:none"
             x="100.03356"
             y="119.73508"><tspan
               style="font-style:normal;font-variant:normal;font-weight:normal;font-stretch:normal;font-size:35.2778px;font-family:Ramaraja;-inkscape-font-specification:'Ramaraja, Normal';font-variant-ligatures:normal;font-variant-caps:normal;font-variant-numeric:normal;font-variant-east-asian:normal"
               id="tspan2771">M</tspan><tspan
                        style="font-style:normal;font-variant:normal;font-weight:normal;font-stretch:normal;font-size:17.6389px;font-family:Ramaraja;-inkscape-font-specification:'Ramaraja, Normal';font-variant-ligatures:normal;font-variant-caps:normal;font-variant-numeric:normal;font-variant-east-asian:normal"
                        id="tspan2773">atriarch</tspan></tspan></text>
                <text
                        xml:space="preserve"
                        style="font-size:20.0498px;font-family:Yrsa;-inkscape-font-specification:'Yrsa, Normal';fill:#000000;fill-opacity:1;stroke:#37194a;stroke-width:0;stroke-dasharray:none;stroke-opacity:1"
                        x="99.981499"
                        y="126.50138"
                        id="text2781"><tspan
             sodipodi:role="line"
             id="tspan2779"
             style="font-style:normal;font-variant:normal;font-weight:normal;font-stretch:normal;font-size:6.9617px;font-family:Pagul;-inkscape-font-specification:'Pagul, Normal';font-variant-ligatures:normal;font-variant-caps:normal;font-variant-numeric:normal;font-variant-east-asian:normal;stroke-width:0"
             x="99.981499"
             y="126.50138">The Object Mother Factory</tspan></text>
            </g>
            <g
                    id="g2801"
                    transform="translate(-0.03178723,41.946709)">
                <g
                        id="g3064"
                        inkscape:export-filename="header.svg"
                        inkscape:export-xdpi="96"
                        inkscape:export-ydpi="96">
                    <path
                            d="m 69.106464,120.54354 -9.591171,-4.77997 v -1.40587 l 9.591171,-4.77996 0.78104,1.68704 -8.185299,3.74899 8.185299,3.87396 z"
                            id="path2803"
                            style="font-size:31.2416px;font-family:Yrsa;-inkscape-font-specification:'Yrsa, Normal';fill:#bda8ca;stroke:#37194a;stroke-width:0.368997"/>
                    <path
                            d="m 76.385747,117.26317 q -0.218691,-0.59359 -0.406141,-1.34339 -0.18745,-0.7498 -0.18745,-1.34339 0,-0.93725 0.499866,-1.53084 0.531107,-0.59359 1.468355,-1.37463 1.405872,-1.21842 2.061946,-2.15567 0.687315,-0.96849 0.687315,-2.12443 0,-1.18718 -0.687315,-1.93698 -0.687315,-0.78104 -1.999463,-0.78104 -0.718556,0 -1.343388,0.24994 -0.593591,0.24993 -0.906007,0.56235 -0.249933,0.24993 -0.343657,0.5311 -0.09373,0.24994 -0.124967,0.59359 l -0.249933,2.28064 h -1.437113 q -0.281175,-0.87476 -0.468624,-1.93698 -0.156208,-1.06221 -0.156208,-2.06194 0.749798,-0.65608 2.030704,-1.15594 1.312147,-0.49987 2.780502,-0.49987 1.655805,0 2.905469,0.65607 1.249664,0.65608 1.968221,1.74953 0.718557,1.06222 0.718557,2.31188 0,1.1247 -0.531108,1.99946 -0.499865,0.87477 -1.312147,1.59333 -0.78104,0.71855 -1.687046,1.40587 -0.749799,0.59359 -1.093456,0.93725 -0.343658,0.34365 -0.468624,0.65607 -0.09372,0.31242 -0.156208,0.87476 l -0.218691,1.84326 z m 0.78104,5.49852 q -0.687315,0 -1.124698,-0.40614 -0.406141,-0.43738 -0.406141,-1.09346 0,-0.68731 0.406141,-1.09345 0.437383,-0.43738 1.124698,-0.43738 0.718557,0 1.155939,0.43738 0.437382,0.40614 0.437382,1.09345 0,0.65608 -0.437382,1.09346 -0.437382,0.40614 -1.155939,0.40614 z"
                            id="path2805"
                            style="font-size:31.2416px;font-family:Yrsa;-inkscape-font-specification:'Yrsa, Normal';fill:#bda8ca;stroke:#37194a;stroke-width:0.368997"/>
                    <path
                            d="m 86.789182,120.57478 -0.78104,-1.68705 8.185299,-3.78023 -8.185299,-3.84272 0.78104,-1.6558 9.591171,4.77996 v 1.40587 z"
                            id="path2807"
                            style="font-size:31.2416px;font-family:Yrsa;-inkscape-font-specification:'Yrsa, Normal';fill:#bda8ca;stroke:#37194a;stroke-width:0.368997"/>
                </g>
                <path
                        d="m 67.255203,157.86244 -9.591171,-4.77997 v -1.40587 l 9.591171,-4.77996 0.78104,1.68704 -8.185299,3.74899 8.185299,3.87396 z"
                        id="path2874"
                        style="font-size:31.2416px;font-family:Yrsa;-inkscape-font-specification:'Yrsa, Normal';fill:#bda8ca;stroke:#37194a;stroke-width:0.368997"/>
                <path
                        d="m 74.534486,154.58207 q -0.218691,-0.59359 -0.406141,-1.34339 -0.18745,-0.7498 -0.18745,-1.34339 0,-0.93725 0.499866,-1.53084 0.531107,-0.59359 1.468355,-1.37463 1.405872,-1.21842 2.061946,-2.15567 0.687315,-0.96849 0.687315,-2.12443 0,-1.18718 -0.687315,-1.93698 -0.687315,-0.78104 -1.999463,-0.78104 -0.718556,0 -1.343388,0.24994 -0.593591,0.24993 -0.906007,0.56235 -0.249933,0.24993 -0.343657,0.5311 -0.09373,0.24994 -0.124967,0.59359 l -0.249933,2.28064 h -1.437113 q -0.281175,-0.87476 -0.468624,-1.93698 -0.156208,-1.06221 -0.156208,-2.06194 0.749798,-0.65608 2.030704,-1.15594 1.312147,-0.49987 2.780502,-0.49987 1.655805,0 2.905469,0.65607 1.249664,0.65608 1.968221,1.74953 0.718557,1.06222 0.718557,2.31188 0,1.1247 -0.531108,1.99946 -0.499865,0.87477 -1.312147,1.59333 -0.78104,0.71855 -1.687046,1.40587 -0.749799,0.59359 -1.093456,0.93725 -0.343658,0.34365 -0.468624,0.65607 -0.09372,0.31242 -0.156208,0.87476 l -0.218691,1.84326 z m 0.78104,5.49852 q -0.687315,0 -1.124698,-0.40614 -0.406141,-0.43738 -0.406141,-1.09346 0,-0.68731 0.406141,-1.09345 0.437383,-0.43738 1.124698,-0.43738 0.718557,0 1.155939,0.43738 0.437382,0.40614 0.437382,1.09345 0,0.65608 -0.437382,1.09346 -0.437382,0.40614 -1.155939,0.40614 z"
                        id="path2876"
                        style="font-size:31.2416px;font-family:Yrsa;-inkscape-font-specification:'Yrsa, Normal';fill:#bda8ca;stroke:#37194a;stroke-width:0.368997"/>
                <path
                        d="m 84.937921,157.89368 -0.78104,-1.68705 8.185299,-3.78023 -8.185299,-3.84272 0.78104,-1.6558 9.591171,4.77996 v 1.40587 z"
                        id="path2878"
                        style="font-size:31.2416px;font-family:Yrsa;-inkscape-font-specification:'Yrsa, Normal';fill:#bda8ca;stroke:#37194a;stroke-width:0.368997"/>
                <g
                        aria-label="Matriarch"
                        id="text2795"
                        style="font-size:26.5299px;font-family:Ramaraja;-inkscape-font-specification:'Ramaraja, Normal';stroke:#37194a;stroke-width:0">
                    <path
                            d="m 101.91504,99.179878 q 1.08186,0.04704 1.69334,0.141111 0.61148,0.04704 1.69333,0.04704 0.79963,0 1.55223,-0.04704 0.75259,-0.09407 1.69333,-0.141111 l 5.87963,13.170382 0.0941,0.047 q 0.14111,0 0.14111,-0.18814 l 1.31704,-3.2926 q 0.56444,-1.41111 1.17592,-3.05741 0.65852,-1.6463 1.17593,-3.05741 0.18815,-0.51741 0.3763,-1.12889 0.18815,-0.61148 0.32926,-1.12889 0.18815,-0.611479 0.32926,-1.222961 0.0941,0 0.37629,0 0.32926,0 0.70556,0.04704 0.42333,0 0.79963,0 0.3763,0 0.61148,0 0.79963,0 2.16371,-0.04704 1.36407,-0.09407 2.30481,-0.141111 0.0941,0.09407 0.14111,0.564445 0.0941,0.423337 0,0.611477 -0.23518,0 -0.84666,0.0941 -0.56445,0.0941 -0.79963,0.23518 -0.23519,0.18815 -0.3763,0.42334 -0.0941,0.23518 -0.047,0.84666 0.047,0.84667 0.0941,2.44593 0.047,1.55223 0.0941,3.43371 0.0941,1.88148 0.14111,3.81 0.047,1.88148 0.14111,3.38667 0.047,0.8937 0.0941,1.69333 0.0941,0.79963 0.32926,1.41112 0.047,0.18814 0.32926,0.28222 0.28222,0.0941 0.61148,0.18815 0.32926,0.047 0.61148,0.0941 0.28222,0 0.3763,0 0.0941,0.23519 0.0941,0.61148 0.047,0.32926 -0.047,0.56445 -0.94074,-0.0941 -2.06963,-0.18815 -1.08185,-0.0941 -2.11666,-0.0941 -1.08186,0 -2.44593,0.0941 -1.36408,0.0941 -2.44593,0.18815 -0.0941,-0.0941 -0.14111,-0.51741 0,-0.42333 0.0941,-0.65852 0.14111,0 0.42334,0 0.32926,-0.047 0.65852,-0.0941 0.37629,-0.0941 0.65851,-0.18815 0.32926,-0.14111 0.42334,-0.28222 0.0941,-0.23519 0.14111,-0.51741 0.0941,-0.32926 0.0941,-0.56445 v -1.92852 l -0.28222,-9.54852 q 0,-0.18815 -0.047,-0.51741 0,-0.3763 -0.047,-0.70555 0,-0.32926 -0.047,-0.56445 -0.047,-0.28222 -0.14111,-0.28222 -0.0941,0 -0.14111,0.18815 l -5.4563,14.81667 q -0.047,0.0941 -0.18815,0.32926 -0.14111,0.18815 -0.32926,0.42334 -0.18815,0.18814 -0.42333,0.37629 -0.18815,0.14111 -0.3763,0.14111 -0.18815,0 -0.28222,-0.047 l -6.96149,-16.22779 q -0.0941,2.39889 -0.14111,3.90407 0,1.50519 -0.047,2.72815 -0.047,1.17593 -0.0941,2.3989 -0.047,1.22296 -0.0941,3.0574 -0.047,0.51741 0,1.22297 0.047,0.70555 0.0941,0.8937 0.047,0.23519 0.47037,0.42334 0.42333,0.18814 0.8937,0.32926 0.47037,0.0941 0.84667,0.18814 0.42333,0.047 0.51741,0.047 0.0941,0.18815 0.0941,0.56445 0.047,0.37629 -0.047,0.61148 -0.94075,-0.0941 -1.88149,-0.18815 -0.94074,-0.0941 -1.97555,-0.0941 -1.08186,0 -1.92852,0.0941 -0.84667,0.0941 -1.92852,0.18815 -0.0941,-0.18815 -0.14111,-0.51741 0,-0.3763 0.0941,-0.61148 0.14111,0 0.51741,-0.047 0.37629,-0.0941 0.79963,-0.23518 0.42333,-0.14112 0.79963,-0.32926 0.37629,-0.23519 0.51741,-0.51741 0.047,-0.0941 0.0941,-0.47037 0.0941,-0.3763 0.14111,-0.79963 0.047,-0.42334 0.0941,-0.84667 0.047,-0.42333 0.047,-0.61148 0.047,-1.36408 0.14111,-3.38667 0.0941,-2.02259 0.14111,-3.99815 0.0941,-2.02259 0.14112,-3.62186 0.0941,-1.59926 0.0941,-2.1637 0,-0.18815 -0.047,-0.32926 0,-0.18815 -0.0941,-0.3763 -0.0941,-0.14111 -0.3763,-0.23518 -0.23518,-0.14111 -0.56444,-0.23519 -0.28223,-0.0941 -0.61148,-0.14111 -0.28223,-0.047 -0.47038,-0.047 -0.14111,-0.23518 -0.0941,-0.658514 0.047,-0.470371 0.0941,-0.517408 z"
                            style="font-size:35.2778px"
                            id="path2810"/>
                    <path
                            d="m 130.93695,118.77082 q 0.30574,0 0.47037,-0.1176 0.18815,-0.14111 0.18815,-0.21166 v -2.16371 q -0.25871,0.1176 -0.54093,0.23519 -0.2587,0.0941 -0.49389,0.2587 -0.32926,0.21167 -0.44685,0.49389 -0.11759,0.28222 -0.11759,0.54093 0.0235,0.5174 0.32925,0.75259 0.30575,0.21167 0.61149,0.21167 z m 0.32926,-5.99723 q 0.98777,0 1.64629,0.65852 0.68204,0.65852 0.68204,1.71685 v 2.89278 q 0,0.32926 0.11759,0.49389 0.1176,0.14111 0.25871,0.14111 0.16463,0 0.28222,-0.047 0.11759,-0.0706 0.16463,-0.0941 0.047,0.0235 0.0706,0.11759 0.047,0.0706 0.047,0.14112 0,0.0941 -0.0705,0.23518 -0.0706,0.0706 -0.25871,0.21167 -0.16463,0.11759 -0.37629,0.2587 -0.21167,0.14111 -0.47037,0.23519 -0.25871,0.0941 -0.49389,0.0941 -0.3763,0 -0.72908,-0.23518 -0.32926,-0.25871 -0.44685,-0.54093 -0.047,0.047 -0.2587,0.18815 -0.18815,0.11759 -0.47037,0.2587 -0.25871,0.14111 -0.54093,0.23519 -0.25871,0.11759 -0.47037,0.11759 -0.44685,0 -0.82315,-0.16463 -0.3763,-0.16463 -0.65852,-0.42333 -0.2587,-0.28223 -0.42333,-0.61149 -0.14111,-0.32926 -0.14111,-0.68203 0,-0.47037 0.23518,-0.79963 0.2587,-0.35278 0.56445,-0.44686 0.23518,-0.0705 0.58796,-0.21166 0.3763,-0.14111 0.77611,-0.28222 0.42333,-0.16463 0.82315,-0.30575 0.39981,-0.16463 0.70556,-0.28222 v -0.32926 -0.39981 q 0,-0.58797 -0.25871,-1.05834 -0.2587,-0.49389 -0.65852,-0.49389 -0.44685,0 -0.635,0.3763 -0.16463,0.3763 -0.28222,0.91722 -0.047,0.25871 -0.2587,0.47037 -0.21167,0.21167 -0.61149,0.21167 -0.30574,0 -0.56444,-0.18815 -0.23519,-0.21166 -0.23519,-0.54092 0,-0.16463 0.047,-0.30574 0.0706,-0.16463 0.16463,-0.35278 0.0706,-0.0706 0.35278,-0.25871 0.28222,-0.18814 0.68204,-0.39981 0.42333,-0.21167 0.91722,-0.35278 0.49389,-0.16463 1.0113,-0.16463 z"
                            style="font-size:17.6389px"
                            id="path2812"/>
                    <path
                            d="m 139.59175,113.10285 q 0.047,0 0.0706,0.0706 0.0235,0.0705 0.0235,0.11759 0,0.11759 -0.11759,0.28222 -0.1176,0.16463 -0.23519,0.2587 h -1.50519 v 3.83353 q 0,1.17592 0.84667,1.17592 0.2587,0 0.51741,-0.14111 0.2587,-0.16463 0.30574,-0.21167 0.0235,0.0235 0.047,0.0941 0.047,0.047 0.047,0.11759 0,0.047 -0.047,0.16463 -0.047,0.0941 -0.0706,0.11759 -0.047,0.0706 -0.21167,0.21167 -0.14111,0.14111 -0.37629,0.28222 -0.21167,0.14111 -0.49389,0.25871 -0.25871,0.11759 -0.56445,0.11759 -0.35277,0 -0.72907,-0.11759 -0.35278,-0.0941 -0.65852,-0.35278 -0.28222,-0.28222 -0.47037,-0.70556 -0.16463,-0.44685 -0.16463,-1.10537 v -3.73945 h -1.10537 q -0.0706,-0.047 -0.0706,-0.21166 0.1176,-0.16463 0.23519,-0.28222 0.11759,-0.1176 0.2587,-0.23519 h 0.68204 v -0.82315 q 0.44685,-0.39981 0.84667,-0.84667 0.42333,-0.44685 0.77611,-0.79963 0.14111,-0.0941 0.2587,-0.0705 0.1176,0 0.14111,0.0705 v 2.46945 z"
                            style="font-size:17.6389px"
                            id="path2814"/>
                    <path
                            d="m 143.07251,112.82063 q 0.0705,0.0235 0.16463,0.11759 0.0941,0.0941 0.0941,0.14111 -0.0235,0.047 -0.047,0.21167 -0.0235,0.16463 -0.047,0.3763 -0.0235,0.18814 -0.047,0.37629 -0.0235,0.18815 -0.0235,0.25871 0,0.047 0.047,0.0705 0.047,0 0.047,-0.0235 0.14112,-0.23518 0.32926,-0.51741 0.18815,-0.28222 0.42334,-0.49388 0.23518,-0.23519 0.5174,-0.3763 0.30575,-0.16463 0.68204,-0.16463 0.28222,0 0.54093,0.0705 0.28222,0.047 0.42333,0.18815 0.047,0.0706 0.11759,0.30574 0.0706,0.21167 0.0706,0.47037 0,0.18815 -0.0706,0.42334 -0.0706,0.21167 -0.21166,0.39981 -0.11759,0.16463 -0.28222,0.28223 -0.16463,0.11759 -0.3763,0.11759 -0.21167,0 -0.3763,-0.14111 -0.14111,-0.14111 -0.28222,-0.25871 -0.11759,-0.11759 -0.2587,-0.21166 -0.1176,-0.1176 -0.30574,-0.1176 -0.23519,0 -0.42334,0.16463 -0.18815,0.14111 -0.32926,0.35278 -0.14111,0.21167 -0.21166,0.42334 -0.0706,0.21166 -0.0706,0.32925 v 1.88149 q 0,0.44685 0,0.84666 0.0235,0.3763 0.11759,0.61149 0.0235,0.0705 0.14111,0.14111 0.1176,0.047 0.25871,0.0941 0.14111,0.0235 0.28222,0.047 0.14111,0 0.21167,0 0.047,0.0941 0.047,0.30574 0,0.21167 -0.047,0.28222 -0.47037,-0.047 -1.0113,-0.0705 -0.51741,-0.047 -1.0113,-0.047 -0.49389,0 -1.08185,0.047 -0.58796,0.0235 -1.05833,0.0705 -0.047,-0.0705 -0.047,-0.28222 0,-0.21167 0.047,-0.30574 0.0705,0 0.23518,0 0.16463,-0.0235 0.30574,-0.047 0.16463,-0.047 0.28222,-0.0941 0.14112,-0.0706 0.18815,-0.14111 0.0941,-0.23519 0.0941,-0.58797 0.0235,-0.35277 0.0235,-0.87018 v -1.78741 q 0,-0.047 0,-0.21167 0,-0.18815 -0.0235,-0.37629 -0.0235,-0.21167 -0.047,-0.39982 -0.0235,-0.18815 -0.0706,-0.28222 -0.047,-0.0941 -0.18814,-0.14111 -0.14111,-0.0706 -0.30574,-0.0941 -0.16463,-0.047 -0.30575,-0.047 -0.14111,-0.0235 -0.18814,-0.0235 -0.047,-0.0235 -0.047,-0.23519 0.0235,-0.23518 0.0705,-0.23518 0.89371,-0.0706 1.74038,-0.32926 0.84666,-0.28223 1.29352,-0.49389 z"
                            style="font-size:17.6389px"
                            id="path2816"/>
                    <path
                            d="m 150.08103,117.4773 q 0,0.44685 0,0.84666 0.0235,0.3763 0.11759,0.61149 0.0235,0.0705 0.14112,0.14111 0.11759,0.047 0.2587,0.0941 0.14111,0.0235 0.28222,0.047 0.14111,0 0.21167,0 0.047,0.0941 0.047,0.30574 0,0.21167 -0.047,0.28222 -0.47037,-0.047 -1.0113,-0.0705 -0.51741,-0.047 -1.0113,-0.047 -0.49388,0 -1.08185,0.047 -0.58796,0.0235 -1.05833,0.0705 -0.047,-0.0705 -0.047,-0.28222 0,-0.21167 0.047,-0.30574 0.0705,0 0.23518,0 0.16463,-0.0235 0.30574,-0.047 0.16463,-0.047 0.28223,-0.0941 0.14111,-0.0706 0.18814,-0.14111 0.0941,-0.23519 0.0941,-0.58797 0.0235,-0.35277 0.0235,-0.87018 v -1.78741 q 0,-0.047 0,-0.21167 0,-0.18815 -0.0235,-0.37629 -0.0235,-0.21167 -0.047,-0.39982 -0.0235,-0.18815 -0.0705,-0.28222 -0.047,-0.0941 -0.18815,-0.14111 -0.14111,-0.0706 -0.30574,-0.0941 -0.16463,-0.047 -0.30574,-0.047 -0.14112,-0.0235 -0.18815,-0.0235 -0.047,-0.0235 -0.047,-0.23519 0.0235,-0.23518 0.0706,-0.23518 0.8937,-0.0706 1.74037,-0.32926 0.84667,-0.28223 1.29352,-0.49389 0.0705,0.0235 0.16463,0.11759 0.0941,0.0941 0.0941,0.14111 -0.047,0.0941 -0.0941,0.39982 -0.047,0.30574 -0.0706,0.47037 v 0.98778 z m -2.2813,-7.31427 q 0,-0.47037 0.30574,-0.77611 0.32926,-0.32926 0.79963,-0.32926 0.47038,0 0.79963,0.32926 0.32926,0.30574 0.32926,0.77611 0,0.47037 -0.32926,0.79963 -0.32925,0.32926 -0.79963,0.32926 -0.47037,0 -0.79963,-0.32926 -0.30574,-0.32926 -0.30574,-0.79963 z"
                            style="font-size:17.6389px"
                            id="path2818"/>
                    <path
                            d="m 154.33788,118.77082 q 0.30574,0 0.47037,-0.1176 0.18814,-0.14111 0.18814,-0.21166 v -2.16371 q -0.2587,0.1176 -0.54092,0.23519 -0.25871,0.0941 -0.49389,0.2587 -0.32926,0.21167 -0.44685,0.49389 -0.1176,0.28222 -0.1176,0.54093 0.0235,0.5174 0.32926,0.75259 0.30574,0.21167 0.61149,0.21167 z m 0.32925,-5.99723 q 0.98778,0 1.6463,0.65852 0.68204,0.65852 0.68204,1.71685 v 2.89278 q 0,0.32926 0.11759,0.49389 0.11759,0.14111 0.25871,0.14111 0.16463,0 0.28222,-0.047 0.11759,-0.0706 0.16463,-0.0941 0.047,0.0235 0.0705,0.11759 0.047,0.0706 0.047,0.14112 0,0.0941 -0.0705,0.23518 -0.0706,0.0706 -0.25871,0.21167 -0.16463,0.11759 -0.3763,0.2587 -0.21166,0.14111 -0.47037,0.23519 -0.2587,0.0941 -0.49389,0.0941 -0.37629,0 -0.72907,-0.23518 -0.32926,-0.25871 -0.44685,-0.54093 -0.047,0.047 -0.25871,0.18815 -0.18814,0.11759 -0.47037,0.2587 -0.2587,0.14111 -0.54092,0.23519 -0.25871,0.11759 -0.47037,0.11759 -0.44686,0 -0.82315,-0.16463 -0.3763,-0.16463 -0.65852,-0.42333 -0.2587,-0.28223 -0.42333,-0.61149 -0.14112,-0.32926 -0.14112,-0.68203 0,-0.47037 0.23519,-0.79963 0.2587,-0.35278 0.56444,-0.44686 0.23519,-0.0705 0.58797,-0.21166 0.37629,-0.14111 0.77611,-0.28222 0.42333,-0.16463 0.82315,-0.30575 0.39981,-0.16463 0.70555,-0.28222 v -0.32926 -0.39981 q 0,-0.58797 -0.2587,-1.05834 -0.2587,-0.49389 -0.65852,-0.49389 -0.44685,0 -0.635,0.3763 -0.16463,0.3763 -0.28222,0.91722 -0.047,0.25871 -0.25871,0.47037 -0.21166,0.21167 -0.61148,0.21167 -0.30574,0 -0.56444,-0.18815 -0.23519,-0.21166 -0.23519,-0.54092 0,-0.16463 0.047,-0.30574 0.0706,-0.16463 0.16463,-0.35278 0.0705,-0.0706 0.35278,-0.25871 0.28222,-0.18814 0.68203,-0.39981 0.42334,-0.21167 0.91723,-0.35278 0.49389,-0.16463 1.01129,-0.16463 z"
                            style="font-size:17.6389px"
                            id="path2820"/>
                    <path
                            d="m 161.46398,112.82063 q 0.0705,0.0235 0.16463,0.11759 0.0941,0.0941 0.0941,0.14111 -0.0235,0.047 -0.047,0.21167 -0.0235,0.16463 -0.047,0.3763 -0.0235,0.18814 -0.047,0.37629 -0.0235,0.18815 -0.0235,0.25871 0,0.047 0.047,0.0705 0.047,0 0.047,-0.0235 0.14111,-0.23518 0.32926,-0.51741 0.18814,-0.28222 0.42333,-0.49388 0.23518,-0.23519 0.51741,-0.3763 0.30574,-0.16463 0.68203,-0.16463 0.28223,0 0.54093,0.0705 0.28222,0.047 0.42333,0.18815 0.047,0.0706 0.1176,0.30574 0.0705,0.21167 0.0705,0.47037 0,0.18815 -0.0705,0.42334 -0.0706,0.21167 -0.21167,0.39981 -0.11759,0.16463 -0.28222,0.28223 -0.16463,0.11759 -0.3763,0.11759 -0.21167,0 -0.3763,-0.14111 -0.14111,-0.14111 -0.28222,-0.25871 -0.11759,-0.11759 -0.2587,-0.21166 -0.11759,-0.1176 -0.30574,-0.1176 -0.23519,0 -0.42334,0.16463 -0.18814,0.14111 -0.32926,0.35278 -0.14111,0.21167 -0.21166,0.42334 -0.0706,0.21166 -0.0706,0.32925 v 1.88149 q 0,0.44685 0,0.84666 0.0235,0.3763 0.11759,0.61149 0.0235,0.0705 0.14112,0.14111 0.11759,0.047 0.2587,0.0941 0.14111,0.0235 0.28222,0.047 0.14111,0 0.21167,0 0.047,0.0941 0.047,0.30574 0,0.21167 -0.047,0.28222 -0.47037,-0.047 -1.0113,-0.0705 -0.51741,-0.047 -1.0113,-0.047 -0.49388,0 -1.08185,0.047 -0.58796,0.0235 -1.05833,0.0705 -0.047,-0.0705 -0.047,-0.28222 0,-0.21167 0.047,-0.30574 0.0706,0 0.23518,0 0.16463,-0.0235 0.30574,-0.047 0.16463,-0.047 0.28223,-0.0941 0.14111,-0.0706 0.18815,-0.14111 0.0941,-0.23519 0.0941,-0.58797 0.0235,-0.35277 0.0235,-0.87018 v -1.78741 q 0,-0.047 0,-0.21167 0,-0.18815 -0.0235,-0.37629 -0.0235,-0.21167 -0.047,-0.39982 -0.0235,-0.18815 -0.0705,-0.28222 -0.047,-0.0941 -0.18815,-0.14111 -0.14111,-0.0706 -0.30574,-0.0941 -0.16463,-0.047 -0.30574,-0.047 -0.14111,-0.0235 -0.18815,-0.0235 -0.047,-0.0235 -0.047,-0.23519 0.0235,-0.23518 0.0706,-0.23518 0.8937,-0.0706 1.74037,-0.32926 0.84667,-0.28223 1.29352,-0.49389 z"
                            style="font-size:17.6389px"
                            id="path2822"/>
                    <path
                            d="m 165.34454,116.63063 q 0,-0.70556 0.32926,-1.38759 0.32926,-0.70556 0.89371,-1.24649 0.56444,-0.56444 1.29352,-0.8937 0.72907,-0.32926 1.5287,-0.32926 0.65852,0 1.05833,0.11759 0.39982,0.0941 0.51741,0.16463 0.11759,0.1176 0.21167,0.28223 0.0941,0.16463 0.0941,0.47037 0,0.32926 -0.23518,0.65852 -0.23519,0.30574 -0.65852,0.30574 -0.32926,0 -0.54093,-0.23519 -0.21166,-0.2587 -0.39981,-0.47037 -0.42334,-0.47037 -1.05834,-0.47037 -0.2587,0 -0.47037,0.21167 -0.18815,0.18814 -0.32926,0.49389 -0.14111,0.30574 -0.21166,0.70555 -0.0706,0.3763 -0.0706,0.72908 0,0.82314 0.21167,1.36407 0.21166,0.54093 0.54092,0.87019 0.32926,0.32926 0.70556,0.47037 0.39981,0.14111 0.77611,0.14111 0.68204,0 1.08185,-0.25871 0.39982,-0.2587 0.65852,-0.5174 0.0941,0.0235 0.14111,0.11759 0.047,0.0706 0.047,0.14111 0,0.0941 0,0.18815 0,0.0705 -0.047,0.11759 -0.11759,0.16463 -0.35277,0.42334 -0.23519,0.23518 -0.61149,0.49388 -0.35277,0.23519 -0.82314,0.42334 -0.47038,0.16463 -1.0113,0.16463 -0.65852,0 -1.24648,-0.21167 -0.58797,-0.23518 -1.03482,-0.65852 -0.44685,-0.42333 -0.72907,-1.01129 -0.25871,-0.61149 -0.25871,-1.36408 z"
                            style="font-size:17.6389px"
                            id="path2824"/>
                    <path
                            d="m 174.79898,108.94007 q 0.0706,0.0235 0.14111,0.11759 0.0706,0.0941 0.0941,0.16463 -0.047,0.28222 -0.0941,0.54093 -0.047,0.23518 -0.0705,0.51741 0,0.28222 0,0.5174 v 3.15149 0.0941 q 0.047,0 0.11759,-0.0705 0.16463,-0.18815 0.42333,-0.3763 0.25871,-0.21167 0.56445,-0.3763 0.30574,-0.18815 0.61148,-0.28222 0.32926,-0.11759 0.58796,-0.11759 0.65852,0 1.05834,0.23518 0.42333,0.21167 0.65852,0.68204 0.23518,0.44685 0.30574,1.12889 0.0941,0.68204 0.0941,1.59926 v 1.0113 q 0,0.51741 0,0.87018 0.0235,0.35278 0.11759,0.58797 0.0235,0.0705 0.14111,0.14111 0.14112,0.047 0.30575,0.0941 0.16463,0.0235 0.30574,0.047 0.16463,0 0.23518,0 0.047,0.0941 0.047,0.30574 0,0.21167 -0.047,0.28222 -0.47037,-0.047 -1.05833,-0.0705 -0.58797,-0.047 -1.05834,-0.047 -0.49389,0 -0.98777,0.047 -0.49389,0.0235 -0.96426,0.0705 -0.047,-0.0705 -0.047,-0.28222 0,-0.21167 0.047,-0.30574 0.16463,0 0.44685,-0.047 0.30574,-0.0705 0.37629,-0.23518 0.0941,-0.23519 0.0941,-0.58797 0.0235,-0.35277 0.0235,-0.87018 v -1.22297 q 0,-0.42333 -0.047,-0.79963 -0.047,-0.39981 -0.16463,-0.70555 -0.11759,-0.30574 -0.32926,-0.49389 -0.18815,-0.18815 -0.49389,-0.18815 -0.23518,0 -0.49389,0.0941 -0.23518,0.0941 -0.42333,0.23519 -0.18815,0.11759 -0.32926,0.28222 -0.11759,0.14111 -0.11759,0.25871 v 2.54 q 0,0.44685 0,0.84666 0.0235,0.3763 0.11759,0.61149 0.0235,0.0705 0.14111,0.14111 0.11759,0.047 0.2587,0.0941 0.14112,0.0235 0.25871,0.047 0.14111,0 0.21166,0 0.0706,0.0941 0.047,0.30574 0,0.21167 -0.047,0.28222 -0.44685,-0.047 -0.98777,-0.0705 -0.54093,-0.047 -1.0113,-0.047 -0.49389,0 -1.08185,0.047 -0.58797,0.0235 -1.05834,0.0705 -0.047,-0.0705 -0.047,-0.28222 0,-0.21167 0.047,-0.30574 0.0706,0 0.21167,0 0.16463,-0.0235 0.32926,-0.047 0.16463,-0.047 0.28222,-0.0941 0.14111,-0.0706 0.16463,-0.14111 0.11759,-0.23519 0.11759,-0.58797 0.0235,-0.35277 0.0235,-0.87018 v -6.39704 q 0,-0.18815 -0.0235,-0.3763 0,-0.18815 -0.0941,-0.3763 -0.0235,-0.0705 -0.16463,-0.11759 -0.11759,-0.047 -0.2587,-0.0706 -0.14112,-0.047 -0.28223,-0.0705 -0.14111,-0.0235 -0.21166,-0.0235 -0.047,0 -0.0706,-0.21167 0,-0.23518 0.0706,-0.28222 0.635,-0.0706 1.17592,-0.16463 0.54093,-0.0941 0.94074,-0.18815 0.39982,-0.11759 0.61149,-0.18814 0.23518,-0.0706 0.2587,-0.0706 z"
                            style="font-size:17.6389px"
                            id="path2826"/>
                </g>
                <g
                        aria-label="The Object Mother Factory"
                        id="text2799"
                        style="font-size:20.0498px;font-family:Yrsa;-inkscape-font-specification:'Yrsa, Normal';stroke:#37194a;stroke-width:0">
                    <path
                            d="m 103.6765,122.54803 h -1.48548 v 3.95335 h -0.59487 v -3.95335 h -1.47528 v -0.53368 h 3.55563 z"
                            style="font-size:6.9617px;font-family:Pagul;-inkscape-font-specification:'Pagul, Normal'"
                            id="path2829"/>
                    <path
                            d="m 107.69784,126.50138 h -1.64525 v -0.22435 q 0.0782,-0.007 0.17336,-0.0136 0.0952,-0.007 0.15637,-0.0272 0.0952,-0.0306 0.13937,-0.10538 0.0476,-0.0782 0.0476,-0.20056 v -1.72342 q 0,-0.35693 -0.16996,-0.55069 -0.16657,-0.19375 -0.40792,-0.19375 -0.17676,0 -0.32973,0.0578 -0.14956,0.0544 -0.26854,0.13597 -0.11557,0.085 -0.17676,0.16997 -0.0612,0.085 -0.0952,0.14277 v 1.92738 q 0,0.11558 0.0442,0.19036 0.0476,0.0748 0.14277,0.11558 0.0748,0.034 0.15297,0.051 0.0816,0.017 0.17676,0.0238 v 0.22435 h -1.64525 v -0.22435 q 0.0782,-0.007 0.16317,-0.0136 0.085,-0.0102 0.14277,-0.0272 0.0952,-0.0306 0.14277,-0.10538 0.0476,-0.0782 0.0476,-0.20056 v -3.90236 q 0,-0.11557 -0.0544,-0.23115 -0.051,-0.11557 -0.13597,-0.17336 -0.0612,-0.0442 -0.21755,-0.0612 -0.15297,-0.0204 -0.24815,-0.0272 v -0.21755 l 1.24073,-0.0782 0.0476,0.051 v 2.3387 h 0.0136 q 0.11217,-0.11218 0.20395,-0.19716 0.0918,-0.0884 0.24135,-0.18356 0.12917,-0.0816 0.30254,-0.13597 0.17676,-0.0544 0.39431,-0.0544 0.44871,0 0.69005,0.28554 0.24135,0.28214 0.24135,0.81583 v 1.74382 q 0,0.11897 0.0408,0.19376 0.0442,0.0714 0.14277,0.11217 0.0782,0.0306 0.13937,0.0476 0.0646,0.0136 0.16657,0.0204 z"
                            style="font-size:6.9617px;font-family:Pagul;-inkscape-font-specification:'Pagul, Normal'"
                            id="path2831"/>
                    <path
                            d="m 111.08691,125.61077 q -0.21076,0.40112 -0.56428,0.63907 -0.35353,0.23794 -0.81243,0.23794 -0.40451,0 -0.71044,-0.14277 -0.30254,-0.14276 -0.4997,-0.38751 -0.19715,-0.24475 -0.29573,-0.57108 -0.0952,-0.32633 -0.0952,-0.69005 0,-0.32633 0.10198,-0.63906 0.10537,-0.31613 0.30593,-0.56768 0.19376,-0.24135 0.4793,-0.38752 0.28893,-0.14956 0.64586,-0.14956 0.36712,0 0.62886,0.11557 0.26175,0.11558 0.42491,0.31613 0.15637,0.19036 0.23115,0.44871 0.0782,0.25834 0.0782,0.56088 v 0.22435 h -2.21972 q 0,0.32973 0.0612,0.59827 0.0646,0.26854 0.20056,0.4725 0.13257,0.19715 0.34672,0.31273 0.21415,0.11217 0.50989,0.11217 0.30254,0 0.52009,-0.13937 0.22095,-0.14276 0.42491,-0.50989 z m -0.75124,-1.17614 q 0,-0.19036 -0.034,-0.40792 -0.0306,-0.21755 -0.10198,-0.36372 -0.0782,-0.15636 -0.21416,-0.25494 -0.13597,-0.0986 -0.35012,-0.0986 -0.35692,0 -0.59487,0.29913 -0.23455,0.29574 -0.25495,0.82603 z"
                            style="font-size:6.9617px;font-family:Pagul;-inkscape-font-specification:'Pagul, Normal'"
                            id="path2833"/>
                    <path
                            d="m 115.40058,121.86818 q 0.4657,0 0.86001,0.16656 0.39432,0.16657 0.67985,0.4725 0.28554,0.30254 0.44531,0.73084 0.15976,0.42831 0.15976,0.9484 0,0.51669 -0.15976,0.945 -0.15637,0.4249 -0.44191,0.73424 -0.28214,0.30593 -0.67645,0.4759 -0.39432,0.16996 -0.86681,0.16996 -0.4725,0 -0.86682,-0.16657 -0.39431,-0.16996 -0.67985,-0.47589 -0.28554,-0.30594 -0.4453,-0.73424 -0.15637,-0.42831 -0.15637,-0.9484 0,-0.52349 0.15976,-0.9518 0.16317,-0.4283 0.44871,-0.73084 0.28554,-0.30593 0.67985,-0.4691 0.39432,-0.16656 0.86002,-0.16656 z m -0.003,4.20149 q 0.33652,0 0.61866,-0.12237 0.28214,-0.12577 0.4861,-0.35692 0.20396,-0.23455 0.31613,-0.57108 0.11558,-0.33653 0.11558,-0.76483 0,-0.42831 -0.11558,-0.76484 -0.11557,-0.33653 -0.31953,-0.56768 -0.20396,-0.23115 -0.4827,-0.35012 -0.27874,-0.12238 -0.60507,-0.12238 -0.33652,0 -0.61866,0.12238 -0.28214,0.12237 -0.4895,0.35692 -0.20395,0.23115 -0.31953,0.56768 -0.11557,0.33313 -0.11557,0.75804 0,0.4283 0.11217,0.76483 0.11558,0.33653 0.31953,0.57108 0.20396,0.23115 0.4827,0.35692 0.28214,0.12237 0.61527,0.12237 z"
                            style="font-size:6.9617px;font-family:Pagul;-inkscape-font-specification:'Pagul, Normal'"
                            id="path2835"/>
                    <path
                            d="m 121.48526,124.72016 q 0,0.75464 -0.47589,1.26793 -0.4759,0.51329 -1.10476,0.51329 -0.27535,0 -0.54389,-0.085 -0.26514,-0.085 -0.49969,-0.22775 l -0.25155,0.39091 -0.21075,-0.0476 q 0.017,-0.25154 0.0238,-0.60507 0.007,-0.35352 0.007,-0.68325 v -3.31768 q 0,-0.11558 -0.0544,-0.23115 -0.051,-0.11558 -0.13257,-0.16657 -0.0646,-0.0442 -0.21755,-0.0646 -0.14957,-0.0238 -0.24135,-0.0306 v -0.21755 l 1.23054,-0.0782 0.0476,0.051 v 2.20952 l 0.0238,0.007 q 0.21076,-0.22435 0.4589,-0.33653 0.25155,-0.11218 0.4929,-0.11218 0.61866,0 1.03337,0.4895 0.41471,0.48949 0.41471,1.27472 z m -0.71044,0.12578 q 0,-0.25155 -0.0544,-0.51329 -0.0544,-0.26175 -0.16996,-0.4555 -0.11558,-0.19716 -0.30254,-0.31953 -0.18696,-0.12238 -0.4487,-0.12238 -0.23795,0 -0.41811,0.0952 -0.17676,0.0918 -0.31953,0.25155 v 1.95118 q 0.0204,0.0816 0.0782,0.19036 0.0612,0.10877 0.16316,0.20735 0.10198,0.0952 0.23116,0.15637 0.12917,0.0578 0.31613,0.0578 0.41471,0 0.66965,-0.40111 0.25495,-0.40111 0.25495,-1.09796 z"
                            style="font-size:6.9617px;font-family:Pagul;-inkscape-font-specification:'Pagul, Normal'"
                            id="path2837"/>
                    <path
                            d="m 123.2019,126.26343 q 0,0.37392 -0.10878,0.70025 -0.10878,0.32973 -0.28894,0.54388 -0.19376,0.22776 -0.4385,0.34673 -0.24135,0.12237 -0.53369,0.12237 -0.30253,0 -0.4555,-0.12237 -0.15297,-0.11897 -0.15297,-0.28214 0,-0.14617 0.0816,-0.25834 0.0816,-0.10878 0.23795,-0.10878 0.10538,0 0.18696,0.0442 0.0816,0.0442 0.14277,0.11557 0.0544,0.0612 0.10878,0.14957 0.0578,0.0918 0.10877,0.17676 0.25835,0 0.36713,-0.31273 0.11217,-0.31273 0.11217,-1.00278 v -2.52226 q 0,-0.10878 -0.0544,-0.20735 -0.051,-0.10198 -0.13597,-0.16317 -0.0544,-0.0374 -0.26174,-0.0748 -0.20396,-0.0374 -0.30933,-0.0476 v -0.21076 l 1.34611,-0.0748 0.0476,0.0476 z m 0.051,-4.51423 q 0,0.19376 -0.12917,0.33993 -0.12577,0.14277 -0.31273,0.14277 -0.17336,0 -0.30254,-0.13597 -0.12577,-0.13937 -0.12577,-0.31613 0,-0.18696 0.12577,-0.32633 0.12918,-0.13937 0.30254,-0.13937 0.19376,0 0.31613,0.13257 0.12577,0.12917 0.12577,0.30253 z"
                            style="font-size:6.9617px;font-family:Pagul;-inkscape-font-specification:'Pagul, Normal'"
                            id="path2839"/>
                    <path
                            d="m 126.99208,125.61077 q -0.21076,0.40112 -0.56428,0.63907 -0.35352,0.23794 -0.81242,0.23794 -0.40452,0 -0.71045,-0.14277 -0.30254,-0.14276 -0.49969,-0.38751 -0.19716,-0.24475 -0.29574,-0.57108 -0.0952,-0.32633 -0.0952,-0.69005 0,-0.32633 0.10198,-0.63906 0.10538,-0.31613 0.30593,-0.56768 0.19376,-0.24135 0.4793,-0.38752 0.28894,-0.14956 0.64586,-0.14956 0.36712,0 0.62886,0.11557 0.26175,0.11558 0.42491,0.31613 0.15637,0.19036 0.23115,0.44871 0.0782,0.25834 0.0782,0.56088 v 0.22435 h -2.21973 q 0,0.32973 0.0612,0.59827 0.0646,0.26854 0.20056,0.4725 0.13257,0.19715 0.34672,0.31273 0.21416,0.11217 0.50989,0.11217 0.30254,0 0.52009,-0.13937 0.22095,-0.14276 0.42491,-0.50989 z m -0.75124,-1.17614 q 0,-0.19036 -0.034,-0.40792 -0.0306,-0.21755 -0.10198,-0.36372 -0.0782,-0.15636 -0.21415,-0.25494 -0.13597,-0.0986 -0.35013,-0.0986 -0.35692,0 -0.59487,0.29913 -0.23455,0.29574 -0.25495,0.82603 z"
                            style="font-size:6.9617px;font-family:Pagul;-inkscape-font-specification:'Pagul, Normal'"
                            id="path2841"/>
                    <path
                            d="m 128.92966,126.52178 q -0.72744,0 -1.13875,-0.4827 -0.41132,-0.4827 -0.41132,-1.29512 0,-0.35352 0.10878,-0.65946 0.11218,-0.30933 0.32293,-0.56088 0.20056,-0.24135 0.50309,-0.38751 0.30254,-0.14957 0.65946,-0.14957 0.4929,0 0.80223,0.23795 0.30933,0.23455 0.30933,0.64246 0,0.16996 -0.0816,0.30253 -0.0816,0.12918 -0.26854,0.12918 -0.20056,0 -0.31274,-0.10198 -0.10877,-0.10198 -0.10877,-0.22775 0,-0.15297 0.0408,-0.31274 0.0408,-0.16316 0.0476,-0.23794 -0.0612,-0.10538 -0.18356,-0.13937 -0.11898,-0.0374 -0.25835,-0.0374 -0.16316,0 -0.31273,0.0714 -0.14617,0.068 -0.28554,0.25494 -0.12577,0.16997 -0.20395,0.4589 -0.0782,0.28894 -0.0782,0.69006 0,0.63226 0.27874,1.03337 0.28214,0.39772 0.73765,0.39772 0.32972,0 0.55068,-0.15977 0.22435,-0.15976 0.41471,-0.4793 l 0.21755,0.14277 q -0.22435,0.40112 -0.59147,0.63567 -0.36712,0.23455 -0.75804,0.23455 z"
                            style="font-size:6.9617px;font-family:Pagul;-inkscape-font-specification:'Pagul, Normal'"
                            id="path2843"/>
                    <path
                            d="m 132.61107,126.28723 q -0.22095,0.0918 -0.41811,0.15636 -0.19716,0.0612 -0.4827,0.0612 -0.42151,0 -0.59487,-0.21075 -0.16996,-0.21416 -0.16996,-0.60167 v -2.27072 h -0.60507 v -0.32633 h 0.61866 v -1.04357 h 0.61867 v 1.04357 h 0.96199 v 0.32633 h -0.95519 v 1.873 q 0,0.21076 0.0136,0.35352 0.017,0.13937 0.0748,0.24475 0.0544,0.0986 0.16317,0.14957 0.10877,0.051 0.29233,0.051 0.085,0 0.24815,-0.0136 0.16656,-0.017 0.23455,-0.0408 z"
                            style="font-size:6.9617px;font-family:Pagul;-inkscape-font-specification:'Pagul, Normal'"
                            id="path2845"/>
                    <path
                            d="m 139.15126,126.50138 h -0.56768 v -3.81398 l -1.28152,3.81398 h -0.53369 l -1.27812,-3.81398 v 3.81398 h -0.56428 v -4.48703 h 0.89741 l 1.21014,3.73919 1.22373,-3.73919 h 0.89401 z"
                            style="font-size:6.9617px;font-family:Pagul;-inkscape-font-specification:'Pagul, Normal'"
                            id="path2847"/>
                    <path
                            d="m 143.16579,124.72356 q 0,0.35353 -0.11217,0.69685 -0.11218,0.33993 -0.31953,0.57788 -0.23455,0.27194 -0.54389,0.40451 -0.30933,0.13257 -0.69345,0.13257 -0.31953,0 -0.60847,-0.11897 -0.28893,-0.12237 -0.51328,-0.35352 -0.22096,-0.22776 -0.35353,-0.55409 -0.12917,-0.32972 -0.12917,-0.73764 0,-0.78523 0.4555,-1.28492 0.4589,-0.49969 1.19994,-0.49969 0.70365,0 1.15915,0.4759 0.4589,0.47249 0.4589,1.26112 z m -0.70364,0.0748 q 0,-0.25495 -0.051,-0.53709 -0.051,-0.28553 -0.15297,-0.48269 -0.10878,-0.21076 -0.28554,-0.33653 -0.17676,-0.12917 -0.43171,-0.12917 -0.26174,0 -0.4487,0.12917 -0.18356,0.12917 -0.29914,0.35352 -0.10877,0.20736 -0.15296,0.4725 -0.0442,0.26515 -0.0442,0.51329 0,0.32633 0.051,0.60507 0.0544,0.27534 0.16996,0.49289 0.11557,0.21756 0.28894,0.34333 0.17676,0.12237 0.4351,0.12237 0.42491,0 0.67306,-0.41131 0.24815,-0.41131 0.24815,-1.13535 z"
                            style="font-size:6.9617px;font-family:Pagul;-inkscape-font-specification:'Pagul, Normal'"
                            id="path2849"/>
                    <path
                            d="m 145.72204,126.28723 q -0.22095,0.0918 -0.41811,0.15636 -0.19715,0.0612 -0.48269,0.0612 -0.42151,0 -0.59487,-0.21075 -0.16997,-0.21416 -0.16997,-0.60167 v -2.27072 h -0.60507 v -0.32633 H 144.07 v -1.04357 h 0.61867 v 1.04357 h 0.96199 v 0.32633 h -0.95519 v 1.873 q 0,0.21076 0.0136,0.35352 0.017,0.13937 0.0748,0.24475 0.0544,0.0986 0.16316,0.14957 0.10878,0.051 0.29234,0.051 0.085,0 0.24814,-0.0136 0.16657,-0.017 0.23455,-0.0408 z"
                            style="font-size:6.9617px;font-family:Pagul;-inkscape-font-specification:'Pagul, Normal'"
                            id="path2851"/>
                    <path
                            d="m 149.69579,126.50138 h -1.64525 v -0.22435 q 0.0782,-0.007 0.17336,-0.0136 0.0952,-0.007 0.15637,-0.0272 0.0952,-0.0306 0.13937,-0.10538 0.0476,-0.0782 0.0476,-0.20056 v -1.72342 q 0,-0.35693 -0.16996,-0.55069 -0.16657,-0.19375 -0.40791,-0.19375 -0.17677,0 -0.32973,0.0578 -0.14957,0.0544 -0.26855,0.13597 -0.11557,0.085 -0.17676,0.16997 -0.0612,0.085 -0.0952,0.14277 v 1.92738 q 0,0.11558 0.0442,0.19036 0.0476,0.0748 0.14277,0.11558 0.0748,0.034 0.15297,0.051 0.0816,0.017 0.17676,0.0238 v 0.22435 h -1.64524 v -0.22435 q 0.0782,-0.007 0.16316,-0.0136 0.085,-0.0102 0.14277,-0.0272 0.0952,-0.0306 0.14277,-0.10538 0.0476,-0.0782 0.0476,-0.20056 v -3.90236 q 0,-0.11557 -0.0544,-0.23115 -0.051,-0.11557 -0.13597,-0.17336 -0.0612,-0.0442 -0.21755,-0.0612 -0.15297,-0.0204 -0.24815,-0.0272 v -0.21755 l 1.24073,-0.0782 0.0476,0.051 v 2.3387 h 0.0136 q 0.11218,-0.11218 0.20396,-0.19716 0.0918,-0.0884 0.24134,-0.18356 0.12918,-0.0816 0.30254,-0.13597 0.17676,-0.0544 0.39431,-0.0544 0.44871,0 0.69006,0.28554 0.24134,0.28214 0.24134,0.81583 v 1.74382 q 0,0.11897 0.0408,0.19376 0.0442,0.0714 0.14277,0.11217 0.0782,0.0306 0.13937,0.0476 0.0646,0.0136 0.16657,0.0204 z"
                            style="font-size:6.9617px;font-family:Pagul;-inkscape-font-specification:'Pagul, Normal'"
                            id="path2853"/>
                    <path
                            d="m 153.08486,125.61077 q -0.21076,0.40112 -0.56428,0.63907 -0.35353,0.23794 -0.81243,0.23794 -0.40451,0 -0.71044,-0.14277 -0.30254,-0.14276 -0.4997,-0.38751 -0.19715,-0.24475 -0.29573,-0.57108 -0.0952,-0.32633 -0.0952,-0.69005 0,-0.32633 0.10198,-0.63906 0.10537,-0.31613 0.30593,-0.56768 0.19376,-0.24135 0.4793,-0.38752 0.28893,-0.14956 0.64586,-0.14956 0.36712,0 0.62886,0.11557 0.26175,0.11558 0.42491,0.31613 0.15637,0.19036 0.23115,0.44871 0.0782,0.25834 0.0782,0.56088 v 0.22435 h -2.21972 q 0,0.32973 0.0612,0.59827 0.0646,0.26854 0.20056,0.4725 0.13257,0.19715 0.34672,0.31273 0.21415,0.11217 0.50989,0.11217 0.30254,0 0.52009,-0.13937 0.22095,-0.14276 0.42491,-0.50989 z m -0.75124,-1.17614 q 0,-0.19036 -0.034,-0.40792 -0.0306,-0.21755 -0.10198,-0.36372 -0.0782,-0.15636 -0.21416,-0.25494 -0.13597,-0.0986 -0.35012,-0.0986 -0.35692,0 -0.59487,0.29913 -0.23455,0.29574 -0.25495,0.82603 z"
                            style="font-size:6.9617px;font-family:Pagul;-inkscape-font-specification:'Pagul, Normal'"
                            id="path2855"/>
                    <path
                            d="m 156.03882,123.58141 q 0,0.17336 -0.085,0.30933 -0.085,0.13257 -0.26174,0.13257 -0.19036,0 -0.29234,-0.0986 -0.0986,-0.0986 -0.0986,-0.21756 0,-0.0748 0.0102,-0.13597 0.0136,-0.0612 0.0238,-0.12237 -0.15976,0 -0.37392,0.12917 -0.21415,0.12917 -0.36372,0.36712 v 1.95118 q 0,0.11898 0.0442,0.19376 0.0476,0.0748 0.14617,0.11218 0.085,0.034 0.21755,0.051 0.13597,0.017 0.23455,0.0238 v 0.22435 h -1.76762 v -0.22435 q 0.0782,-0.007 0.15977,-0.0136 0.085,-0.007 0.14617,-0.0272 0.0952,-0.0306 0.13937,-0.10538 0.0476,-0.0782 0.0476,-0.20056 v -2.07015 q 0,-0.10538 -0.051,-0.20736 -0.0476,-0.10197 -0.13597,-0.16316 -0.0646,-0.0408 -0.15297,-0.0578 -0.0884,-0.0204 -0.19036,-0.0272 v -0.22095 l 1.11496,-0.0748 0.0476,0.0476 v 0.4725 h 0.017 q 0.21075,-0.27534 0.4691,-0.41811 0.25834,-0.14277 0.4725,-0.14277 0.21415,0 0.34672,0.13937 0.13597,0.13937 0.13597,0.37392 z"
                            style="font-size:6.9617px;font-family:Pagul;-inkscape-font-specification:'Pagul, Normal'"
                            id="path2857"/>
                    <path
                            d="M 161.33828,122.54803 H 158.901 v 1.3869 h 2.11775 v 0.53369 H 158.901 v 2.03276 h -0.59487 v -4.48703 h 3.03215 z"
                            style="font-size:6.9617px;font-family:Pagul;-inkscape-font-specification:'Pagul, Normal'"
                            id="path2859"/>
                    <path
                            d="m 165.05708,126.37221 q -0.15977,0.0578 -0.28214,0.0952 -0.11898,0.034 -0.27194,0.034 -0.26515,0 -0.42491,-0.12237 -0.15637,-0.12578 -0.20056,-0.36372 h -0.0204 q -0.22095,0.24474 -0.47589,0.37392 -0.25155,0.12917 -0.60847,0.12917 -0.37732,0 -0.62207,-0.23115 -0.24135,-0.23115 -0.24135,-0.60507 0,-0.19376 0.0544,-0.34673 0.0544,-0.15296 0.16317,-0.27534 0.085,-0.10198 0.22435,-0.18016 0.13937,-0.0816 0.26174,-0.12917 0.15297,-0.0578 0.61867,-0.21416 0.4691,-0.15636 0.63226,-0.24474 v -0.33653 q 0,-0.0442 -0.0204,-0.16996 -0.017,-0.12578 -0.0782,-0.23795 -0.068,-0.12578 -0.19375,-0.21756 -0.12238,-0.0952 -0.35013,-0.0952 -0.15636,0 -0.29234,0.0544 -0.13257,0.051 -0.18696,0.10878 0,0.068 0.0306,0.20056 0.034,0.13257 0.034,0.24474 0,0.11898 -0.10878,0.21756 -0.10537,0.0986 -0.29573,0.0986 -0.16997,0 -0.25155,-0.11898 -0.0782,-0.12237 -0.0782,-0.27194 0,-0.15637 0.10878,-0.29914 0.11217,-0.14276 0.28893,-0.25494 0.15297,-0.0952 0.37052,-0.15977 0.21756,-0.068 0.42491,-0.068 0.28554,0 0.4963,0.0408 0.21415,0.0374 0.38751,0.16656 0.17336,0.12578 0.26175,0.34333 0.0918,0.21415 0.0918,0.55408 0,0.4861 -0.0102,0.86341 -0.0102,0.37392 -0.0102,0.81923 0,0.13257 0.0442,0.21075 0.0476,0.0782 0.14277,0.13257 0.051,0.0306 0.15977,0.034 0.11217,0.003 0.22775,0.003 z m -1.18635,-1.72683 q -0.28894,0.085 -0.50649,0.16656 -0.21755,0.0816 -0.40451,0.20396 -0.16997,0.11558 -0.26854,0.27534 -0.0986,0.15637 -0.0986,0.37392 0,0.28214 0.14617,0.41471 0.14956,0.13257 0.37731,0.13257 0.24135,0 0.42491,-0.11557 0.18356,-0.11898 0.30934,-0.27874 z"
                            style="font-size:6.9617px;font-family:Pagul;-inkscape-font-specification:'Pagul, Normal'"
                            id="path2861"/>
                    <path
                            d="m 166.94028,126.52178 q -0.72745,0 -1.13876,-0.4827 -0.41131,-0.4827 -0.41131,-1.29512 0,-0.35352 0.10878,-0.65946 0.11217,-0.30933 0.32293,-0.56088 0.20055,-0.24135 0.50309,-0.38751 0.30253,-0.14957 0.65946,-0.14957 0.49289,0 0.80222,0.23795 0.30934,0.23455 0.30934,0.64246 0,0.16996 -0.0816,0.30253 -0.0816,0.12918 -0.26854,0.12918 -0.20056,0 -0.31273,-0.10198 -0.10878,-0.10198 -0.10878,-0.22775 0,-0.15297 0.0408,-0.31274 0.0408,-0.16316 0.0476,-0.23794 -0.0612,-0.10538 -0.18356,-0.13937 -0.11897,-0.0374 -0.25834,-0.0374 -0.16317,0 -0.31273,0.0714 -0.14617,0.068 -0.28554,0.25494 -0.12578,0.16997 -0.20396,0.4589 -0.0782,0.28894 -0.0782,0.69006 0,0.63226 0.27874,1.03337 0.28214,0.39772 0.73764,0.39772 0.32973,0 0.55068,-0.15977 0.22435,-0.15976 0.41471,-0.4793 l 0.21755,0.14277 q -0.22435,0.40112 -0.59147,0.63567 -0.36712,0.23455 -0.75803,0.23455 z"
                            style="font-size:6.9617px;font-family:Pagul;-inkscape-font-specification:'Pagul, Normal'"
                            id="path2863"/>
                    <path
                            d="m 170.62168,126.28723 q -0.22095,0.0918 -0.41811,0.15636 -0.19716,0.0612 -0.4827,0.0612 -0.42151,0 -0.59487,-0.21075 -0.16996,-0.21416 -0.16996,-0.60167 v -2.27072 h -0.60507 v -0.32633 h 0.61867 v -1.04357 h 0.61866 v 1.04357 h 0.96199 v 0.32633 h -0.95519 v 1.873 q 0,0.21076 0.0136,0.35352 0.017,0.13937 0.0748,0.24475 0.0544,0.0986 0.16317,0.14957 0.10877,0.051 0.29233,0.051 0.085,0 0.24815,-0.0136 0.16656,-0.017 0.23455,-0.0408 z"
                            style="font-size:6.9617px;font-family:Pagul;-inkscape-font-specification:'Pagul, Normal'"
                            id="path2865"/>
                    <path
                            d="m 174.2215,124.72356 q 0,0.35353 -0.11217,0.69685 -0.11218,0.33993 -0.31953,0.57788 -0.23455,0.27194 -0.54389,0.40451 -0.30933,0.13257 -0.69345,0.13257 -0.31953,0 -0.60847,-0.11897 -0.28893,-0.12237 -0.51329,-0.35352 -0.22095,-0.22776 -0.35352,-0.55409 -0.12917,-0.32972 -0.12917,-0.73764 0,-0.78523 0.4555,-1.28492 0.4589,-0.49969 1.19994,-0.49969 0.70365,0 1.15915,0.4759 0.4589,0.47249 0.4589,1.26112 z m -0.70364,0.0748 q 0,-0.25495 -0.051,-0.53709 -0.051,-0.28553 -0.15297,-0.48269 -0.10878,-0.21076 -0.28554,-0.33653 -0.17676,-0.12917 -0.43171,-0.12917 -0.26174,0 -0.4487,0.12917 -0.18356,0.12917 -0.29914,0.35352 -0.10877,0.20736 -0.15296,0.4725 -0.0442,0.26515 -0.0442,0.51329 0,0.32633 0.051,0.60507 0.0544,0.27534 0.16996,0.49289 0.11557,0.21756 0.28894,0.34333 0.17676,0.12237 0.4351,0.12237 0.42491,0 0.67306,-0.41131 0.24815,-0.41131 0.24815,-1.13535 z"
                            style="font-size:6.9617px;font-family:Pagul;-inkscape-font-specification:'Pagul, Normal'"
                            id="path2867"/>
                    <path
                            d="m 177.27405,123.58141 q 0,0.17336 -0.085,0.30933 -0.085,0.13257 -0.26175,0.13257 -0.19036,0 -0.29234,-0.0986 -0.0986,-0.0986 -0.0986,-0.21756 0,-0.0748 0.0102,-0.13597 0.0136,-0.0612 0.0238,-0.12237 -0.15977,0 -0.37392,0.12917 -0.21415,0.12917 -0.36372,0.36712 v 1.95118 q 0,0.11898 0.0442,0.19376 0.0476,0.0748 0.14617,0.11218 0.085,0.034 0.21755,0.051 0.13597,0.017 0.23455,0.0238 v 0.22435 h -1.76762 v -0.22435 q 0.0782,-0.007 0.15977,-0.0136 0.085,-0.007 0.14616,-0.0272 0.0952,-0.0306 0.13937,-0.10538 0.0476,-0.0782 0.0476,-0.20056 v -2.07015 q 0,-0.10538 -0.051,-0.20736 -0.0476,-0.10197 -0.13597,-0.16316 -0.0646,-0.0408 -0.15296,-0.0578 -0.0884,-0.0204 -0.19036,-0.0272 v -0.22095 l 1.11496,-0.0748 0.0476,0.0476 v 0.4725 h 0.017 q 0.21076,-0.27534 0.4691,-0.41811 0.25835,-0.14277 0.4725,-0.14277 0.21415,0 0.34673,0.13937 0.13597,0.13937 0.13597,0.37392 z"
                            style="font-size:6.9617px;font-family:Pagul;-inkscape-font-specification:'Pagul, Normal'"
                            id="path2869"/>
                    <path
                            d="m 177.30464,127.56195 q 0,-0.16996 0.0918,-0.27874 0.0952,-0.10537 0.23455,-0.10537 0.10877,0 0.18696,0.0408 0.0782,0.0408 0.13937,0.10537 0.051,0.051 0.10877,0.13937 0.0578,0.0884 0.0918,0.14617 0.16997,-0.0918 0.40452,-0.47929 0.23794,-0.38752 0.34332,-0.67986 -0.32293,-0.80562 -0.58467,-1.44129 -0.26175,-0.63566 -0.54728,-1.31551 -0.0646,-0.15637 -0.21756,-0.24135 -0.15296,-0.0884 -0.30593,-0.11218 v -0.22435 h 1.52967 v 0.23795 q -0.10198,0.003 -0.24475,0.0442 -0.14277,0.0374 -0.14277,0.0884 0,0.0204 0.0136,0.068 0.017,0.0476 0.0374,0.0986 0.12917,0.33653 0.39432,0.9722 0.26514,0.63226 0.41131,1.01298 0.15296,-0.36372 0.31613,-0.75124 0.16656,-0.39092 0.37052,-0.9212 0.0238,-0.0646 0.068,-0.17676 0.0442,-0.11558 0.0442,-0.19716 0,-0.0884 -0.15637,-0.16317 -0.15297,-0.0782 -0.29234,-0.0952 v -0.21755 h 1.24413 v 0.21076 q -0.10197,0.017 -0.26854,0.11897 -0.16656,0.0986 -0.24814,0.28214 -0.40452,0.9382 -0.72065,1.70983 -0.31273,0.77163 -0.4759,1.13536 -0.21415,0.47589 -0.38411,0.74104 -0.16657,0.26854 -0.32633,0.42151 -0.15637,0.14276 -0.28554,0.19035 -0.12577,0.051 -0.26175,0.051 -0.26514,0 -0.41811,-0.12577 -0.14956,-0.12577 -0.14956,-0.28894 z"
                            style="font-size:6.9617px;font-family:Pagul;-inkscape-font-specification:'Pagul, Normal'"
                            id="path2871"/>
                </g>
                <g
                        aria-label="Matriarch"
                        id="g2898"
                        style="font-size:26.5299px;font-family:Ramaraja;-inkscape-font-specification:'Ramaraja, Normal';stroke:#37194a;stroke-width:0"
                        transform="translate(-1.8512608,37.318903)">
                    <path
                            d="m 101.91504,99.179878 q 1.08186,0.04704 1.69334,0.141111 0.61148,0.04704 1.69333,0.04704 0.79963,0 1.55223,-0.04704 0.75259,-0.09407 1.69333,-0.141111 l 5.87963,13.170382 0.0941,0.047 q 0.14111,0 0.14111,-0.18814 l 1.31704,-3.2926 q 0.56444,-1.41111 1.17592,-3.05741 0.65852,-1.6463 1.17593,-3.05741 0.18815,-0.51741 0.3763,-1.12889 0.18815,-0.61148 0.32926,-1.12889 0.18815,-0.611479 0.32926,-1.222961 0.0941,0 0.37629,0 0.32926,0 0.70556,0.04704 0.42333,0 0.79963,0 0.3763,0 0.61148,0 0.79963,0 2.16371,-0.04704 1.36407,-0.09407 2.30481,-0.141111 0.0941,0.09407 0.14111,0.564445 0.0941,0.423337 0,0.611477 -0.23518,0 -0.84666,0.0941 -0.56445,0.0941 -0.79963,0.23518 -0.23519,0.18815 -0.3763,0.42334 -0.0941,0.23518 -0.047,0.84666 0.047,0.84667 0.0941,2.44593 0.047,1.55223 0.0941,3.43371 0.0941,1.88148 0.14111,3.81 0.047,1.88148 0.14111,3.38667 0.047,0.8937 0.0941,1.69333 0.0941,0.79963 0.32926,1.41112 0.047,0.18814 0.32926,0.28222 0.28222,0.0941 0.61148,0.18815 0.32926,0.047 0.61148,0.0941 0.28222,0 0.3763,0 0.0941,0.23519 0.0941,0.61148 0.047,0.32926 -0.047,0.56445 -0.94074,-0.0941 -2.06963,-0.18815 -1.08185,-0.0941 -2.11666,-0.0941 -1.08186,0 -2.44593,0.0941 -1.36408,0.0941 -2.44593,0.18815 -0.0941,-0.0941 -0.14111,-0.51741 0,-0.42333 0.0941,-0.65852 0.14111,0 0.42334,0 0.32926,-0.047 0.65852,-0.0941 0.37629,-0.0941 0.65851,-0.18815 0.32926,-0.14111 0.42334,-0.28222 0.0941,-0.23519 0.14111,-0.51741 0.0941,-0.32926 0.0941,-0.56445 v -1.92852 l -0.28222,-9.54852 q 0,-0.18815 -0.047,-0.51741 0,-0.3763 -0.047,-0.70555 0,-0.32926 -0.047,-0.56445 -0.047,-0.28222 -0.14111,-0.28222 -0.0941,0 -0.14111,0.18815 l -5.4563,14.81667 q -0.047,0.0941 -0.18815,0.32926 -0.14111,0.18815 -0.32926,0.42334 -0.18815,0.18814 -0.42333,0.37629 -0.18815,0.14111 -0.3763,0.14111 -0.18815,0 -0.28222,-0.047 l -6.96149,-16.22779 q -0.0941,2.39889 -0.14111,3.90407 0,1.50519 -0.047,2.72815 -0.047,1.17593 -0.0941,2.3989 -0.047,1.22296 -0.0941,3.0574 -0.047,0.51741 0,1.22297 0.047,0.70555 0.0941,0.8937 0.047,0.23519 0.47037,0.42334 0.42333,0.18814 0.8937,0.32926 0.47037,0.0941 0.84667,0.18814 0.42333,0.047 0.51741,0.047 0.0941,0.18815 0.0941,0.56445 0.047,0.37629 -0.047,0.61148 -0.94075,-0.0941 -1.88149,-0.18815 -0.94074,-0.0941 -1.97555,-0.0941 -1.08186,0 -1.92852,0.0941 -0.84667,0.0941 -1.92852,0.18815 -0.0941,-0.18815 -0.14111,-0.51741 0,-0.3763 0.0941,-0.61148 0.14111,0 0.51741,-0.047 0.37629,-0.0941 0.79963,-0.23518 0.42333,-0.14112 0.79963,-0.32926 0.37629,-0.23519 0.51741,-0.51741 0.047,-0.0941 0.0941,-0.47037 0.0941,-0.3763 0.14111,-0.79963 0.047,-0.42334 0.0941,-0.84667 0.047,-0.42333 0.047,-0.61148 0.047,-1.36408 0.14111,-3.38667 0.0941,-2.02259 0.14111,-3.99815 0.0941,-2.02259 0.14112,-3.62186 0.0941,-1.59926 0.0941,-2.1637 0,-0.18815 -0.047,-0.32926 0,-0.18815 -0.0941,-0.3763 -0.0941,-0.14111 -0.3763,-0.23518 -0.23518,-0.14111 -0.56444,-0.23519 -0.28223,-0.0941 -0.61148,-0.14111 -0.28223,-0.047 -0.47038,-0.047 -0.14111,-0.23518 -0.0941,-0.658514 0.047,-0.470371 0.0941,-0.517408 z"
                            style="font-size:35.2778px"
                            id="path2880"/>
                    <path
                            d="m 130.93695,118.77082 q 0.30574,0 0.47037,-0.1176 0.18815,-0.14111 0.18815,-0.21166 v -2.16371 q -0.25871,0.1176 -0.54093,0.23519 -0.2587,0.0941 -0.49389,0.2587 -0.32926,0.21167 -0.44685,0.49389 -0.11759,0.28222 -0.11759,0.54093 0.0235,0.5174 0.32925,0.75259 0.30575,0.21167 0.61149,0.21167 z m 0.32926,-5.99723 q 0.98777,0 1.64629,0.65852 0.68204,0.65852 0.68204,1.71685 v 2.89278 q 0,0.32926 0.11759,0.49389 0.1176,0.14111 0.25871,0.14111 0.16463,0 0.28222,-0.047 0.11759,-0.0706 0.16463,-0.0941 0.047,0.0235 0.0706,0.11759 0.047,0.0706 0.047,0.14112 0,0.0941 -0.0705,0.23518 -0.0706,0.0706 -0.25871,0.21167 -0.16463,0.11759 -0.37629,0.2587 -0.21167,0.14111 -0.47037,0.23519 -0.25871,0.0941 -0.49389,0.0941 -0.3763,0 -0.72908,-0.23518 -0.32926,-0.25871 -0.44685,-0.54093 -0.047,0.047 -0.2587,0.18815 -0.18815,0.11759 -0.47037,0.2587 -0.25871,0.14111 -0.54093,0.23519 -0.25871,0.11759 -0.47037,0.11759 -0.44685,0 -0.82315,-0.16463 -0.3763,-0.16463 -0.65852,-0.42333 -0.2587,-0.28223 -0.42333,-0.61149 -0.14111,-0.32926 -0.14111,-0.68203 0,-0.47037 0.23518,-0.79963 0.2587,-0.35278 0.56445,-0.44686 0.23518,-0.0705 0.58796,-0.21166 0.3763,-0.14111 0.77611,-0.28222 0.42333,-0.16463 0.82315,-0.30575 0.39981,-0.16463 0.70556,-0.28222 v -0.32926 -0.39981 q 0,-0.58797 -0.25871,-1.05834 -0.2587,-0.49389 -0.65852,-0.49389 -0.44685,0 -0.635,0.3763 -0.16463,0.3763 -0.28222,0.91722 -0.047,0.25871 -0.2587,0.47037 -0.21167,0.21167 -0.61149,0.21167 -0.30574,0 -0.56444,-0.18815 -0.23519,-0.21166 -0.23519,-0.54092 0,-0.16463 0.047,-0.30574 0.0706,-0.16463 0.16463,-0.35278 0.0706,-0.0706 0.35278,-0.25871 0.28222,-0.18814 0.68204,-0.39981 0.42333,-0.21167 0.91722,-0.35278 0.49389,-0.16463 1.0113,-0.16463 z"
                            style="font-size:17.6389px"
                            id="path2882"/>
                    <path
                            d="m 139.59175,113.10285 q 0.047,0 0.0706,0.0706 0.0235,0.0705 0.0235,0.11759 0,0.11759 -0.11759,0.28222 -0.1176,0.16463 -0.23519,0.2587 h -1.50519 v 3.83353 q 0,1.17592 0.84667,1.17592 0.2587,0 0.51741,-0.14111 0.2587,-0.16463 0.30574,-0.21167 0.0235,0.0235 0.047,0.0941 0.047,0.047 0.047,0.11759 0,0.047 -0.047,0.16463 -0.047,0.0941 -0.0706,0.11759 -0.047,0.0706 -0.21167,0.21167 -0.14111,0.14111 -0.37629,0.28222 -0.21167,0.14111 -0.49389,0.25871 -0.25871,0.11759 -0.56445,0.11759 -0.35277,0 -0.72907,-0.11759 -0.35278,-0.0941 -0.65852,-0.35278 -0.28222,-0.28222 -0.47037,-0.70556 -0.16463,-0.44685 -0.16463,-1.10537 v -3.73945 h -1.10537 q -0.0706,-0.047 -0.0706,-0.21166 0.1176,-0.16463 0.23519,-0.28222 0.11759,-0.1176 0.2587,-0.23519 h 0.68204 v -0.82315 q 0.44685,-0.39981 0.84667,-0.84667 0.42333,-0.44685 0.77611,-0.79963 0.14111,-0.0941 0.2587,-0.0705 0.1176,0 0.14111,0.0705 v 2.46945 z"
                            style="font-size:17.6389px"
                            id="path2884"/>
                    <path
                            d="m 143.07251,112.82063 q 0.0705,0.0235 0.16463,0.11759 0.0941,0.0941 0.0941,0.14111 -0.0235,0.047 -0.047,0.21167 -0.0235,0.16463 -0.047,0.3763 -0.0235,0.18814 -0.047,0.37629 -0.0235,0.18815 -0.0235,0.25871 0,0.047 0.047,0.0705 0.047,0 0.047,-0.0235 0.14112,-0.23518 0.32926,-0.51741 0.18815,-0.28222 0.42334,-0.49388 0.23518,-0.23519 0.5174,-0.3763 0.30575,-0.16463 0.68204,-0.16463 0.28222,0 0.54093,0.0705 0.28222,0.047 0.42333,0.18815 0.047,0.0706 0.11759,0.30574 0.0706,0.21167 0.0706,0.47037 0,0.18815 -0.0706,0.42334 -0.0706,0.21167 -0.21166,0.39981 -0.11759,0.16463 -0.28222,0.28223 -0.16463,0.11759 -0.3763,0.11759 -0.21167,0 -0.3763,-0.14111 -0.14111,-0.14111 -0.28222,-0.25871 -0.11759,-0.11759 -0.2587,-0.21166 -0.1176,-0.1176 -0.30574,-0.1176 -0.23519,0 -0.42334,0.16463 -0.18815,0.14111 -0.32926,0.35278 -0.14111,0.21167 -0.21166,0.42334 -0.0706,0.21166 -0.0706,0.32925 v 1.88149 q 0,0.44685 0,0.84666 0.0235,0.3763 0.11759,0.61149 0.0235,0.0705 0.14111,0.14111 0.1176,0.047 0.25871,0.0941 0.14111,0.0235 0.28222,0.047 0.14111,0 0.21167,0 0.047,0.0941 0.047,0.30574 0,0.21167 -0.047,0.28222 -0.47037,-0.047 -1.0113,-0.0705 -0.51741,-0.047 -1.0113,-0.047 -0.49389,0 -1.08185,0.047 -0.58796,0.0235 -1.05833,0.0705 -0.047,-0.0705 -0.047,-0.28222 0,-0.21167 0.047,-0.30574 0.0705,0 0.23518,0 0.16463,-0.0235 0.30574,-0.047 0.16463,-0.047 0.28222,-0.0941 0.14112,-0.0706 0.18815,-0.14111 0.0941,-0.23519 0.0941,-0.58797 0.0235,-0.35277 0.0235,-0.87018 v -1.78741 q 0,-0.047 0,-0.21167 0,-0.18815 -0.0235,-0.37629 -0.0235,-0.21167 -0.047,-0.39982 -0.0235,-0.18815 -0.0706,-0.28222 -0.047,-0.0941 -0.18814,-0.14111 -0.14111,-0.0706 -0.30574,-0.0941 -0.16463,-0.047 -0.30575,-0.047 -0.14111,-0.0235 -0.18814,-0.0235 -0.047,-0.0235 -0.047,-0.23519 0.0235,-0.23518 0.0705,-0.23518 0.89371,-0.0706 1.74038,-0.32926 0.84666,-0.28223 1.29352,-0.49389 z"
                            style="font-size:17.6389px"
                            id="path2886"/>
                    <path
                            d="m 150.08103,117.4773 q 0,0.44685 0,0.84666 0.0235,0.3763 0.11759,0.61149 0.0235,0.0705 0.14112,0.14111 0.11759,0.047 0.2587,0.0941 0.14111,0.0235 0.28222,0.047 0.14111,0 0.21167,0 0.047,0.0941 0.047,0.30574 0,0.21167 -0.047,0.28222 -0.47037,-0.047 -1.0113,-0.0705 -0.51741,-0.047 -1.0113,-0.047 -0.49388,0 -1.08185,0.047 -0.58796,0.0235 -1.05833,0.0705 -0.047,-0.0705 -0.047,-0.28222 0,-0.21167 0.047,-0.30574 0.0705,0 0.23518,0 0.16463,-0.0235 0.30574,-0.047 0.16463,-0.047 0.28223,-0.0941 0.14111,-0.0706 0.18814,-0.14111 0.0941,-0.23519 0.0941,-0.58797 0.0235,-0.35277 0.0235,-0.87018 v -1.78741 q 0,-0.047 0,-0.21167 0,-0.18815 -0.0235,-0.37629 -0.0235,-0.21167 -0.047,-0.39982 -0.0235,-0.18815 -0.0705,-0.28222 -0.047,-0.0941 -0.18815,-0.14111 -0.14111,-0.0706 -0.30574,-0.0941 -0.16463,-0.047 -0.30574,-0.047 -0.14112,-0.0235 -0.18815,-0.0235 -0.047,-0.0235 -0.047,-0.23519 0.0235,-0.23518 0.0706,-0.23518 0.8937,-0.0706 1.74037,-0.32926 0.84667,-0.28223 1.29352,-0.49389 0.0705,0.0235 0.16463,0.11759 0.0941,0.0941 0.0941,0.14111 -0.047,0.0941 -0.0941,0.39982 -0.047,0.30574 -0.0706,0.47037 v 0.98778 z m -2.2813,-7.31427 q 0,-0.47037 0.30574,-0.77611 0.32926,-0.32926 0.79963,-0.32926 0.47038,0 0.79963,0.32926 0.32926,0.30574 0.32926,0.77611 0,0.47037 -0.32926,0.79963 -0.32925,0.32926 -0.79963,0.32926 -0.47037,0 -0.79963,-0.32926 -0.30574,-0.32926 -0.30574,-0.79963 z"
                            style="font-size:17.6389px"
                            id="path2888"/>
                    <path
                            d="m 154.33788,118.77082 q 0.30574,0 0.47037,-0.1176 0.18814,-0.14111 0.18814,-0.21166 v -2.16371 q -0.2587,0.1176 -0.54092,0.23519 -0.25871,0.0941 -0.49389,0.2587 -0.32926,0.21167 -0.44685,0.49389 -0.1176,0.28222 -0.1176,0.54093 0.0235,0.5174 0.32926,0.75259 0.30574,0.21167 0.61149,0.21167 z m 0.32925,-5.99723 q 0.98778,0 1.6463,0.65852 0.68204,0.65852 0.68204,1.71685 v 2.89278 q 0,0.32926 0.11759,0.49389 0.11759,0.14111 0.25871,0.14111 0.16463,0 0.28222,-0.047 0.11759,-0.0706 0.16463,-0.0941 0.047,0.0235 0.0705,0.11759 0.047,0.0706 0.047,0.14112 0,0.0941 -0.0705,0.23518 -0.0706,0.0706 -0.25871,0.21167 -0.16463,0.11759 -0.3763,0.2587 -0.21166,0.14111 -0.47037,0.23519 -0.2587,0.0941 -0.49389,0.0941 -0.37629,0 -0.72907,-0.23518 -0.32926,-0.25871 -0.44685,-0.54093 -0.047,0.047 -0.25871,0.18815 -0.18814,0.11759 -0.47037,0.2587 -0.2587,0.14111 -0.54092,0.23519 -0.25871,0.11759 -0.47037,0.11759 -0.44686,0 -0.82315,-0.16463 -0.3763,-0.16463 -0.65852,-0.42333 -0.2587,-0.28223 -0.42333,-0.61149 -0.14112,-0.32926 -0.14112,-0.68203 0,-0.47037 0.23519,-0.79963 0.2587,-0.35278 0.56444,-0.44686 0.23519,-0.0705 0.58797,-0.21166 0.37629,-0.14111 0.77611,-0.28222 0.42333,-0.16463 0.82315,-0.30575 0.39981,-0.16463 0.70555,-0.28222 v -0.32926 -0.39981 q 0,-0.58797 -0.2587,-1.05834 -0.2587,-0.49389 -0.65852,-0.49389 -0.44685,0 -0.635,0.3763 -0.16463,0.3763 -0.28222,0.91722 -0.047,0.25871 -0.25871,0.47037 -0.21166,0.21167 -0.61148,0.21167 -0.30574,0 -0.56444,-0.18815 -0.23519,-0.21166 -0.23519,-0.54092 0,-0.16463 0.047,-0.30574 0.0706,-0.16463 0.16463,-0.35278 0.0705,-0.0706 0.35278,-0.25871 0.28222,-0.18814 0.68203,-0.39981 0.42334,-0.21167 0.91723,-0.35278 0.49389,-0.16463 1.01129,-0.16463 z"
                            style="font-size:17.6389px"
                            id="path2890"/>
                    <path
                            d="m 161.46398,112.82063 q 0.0705,0.0235 0.16463,0.11759 0.0941,0.0941 0.0941,0.14111 -0.0235,0.047 -0.047,0.21167 -0.0235,0.16463 -0.047,0.3763 -0.0235,0.18814 -0.047,0.37629 -0.0235,0.18815 -0.0235,0.25871 0,0.047 0.047,0.0705 0.047,0 0.047,-0.0235 0.14111,-0.23518 0.32926,-0.51741 0.18814,-0.28222 0.42333,-0.49388 0.23518,-0.23519 0.51741,-0.3763 0.30574,-0.16463 0.68203,-0.16463 0.28223,0 0.54093,0.0705 0.28222,0.047 0.42333,0.18815 0.047,0.0706 0.1176,0.30574 0.0705,0.21167 0.0705,0.47037 0,0.18815 -0.0705,0.42334 -0.0706,0.21167 -0.21167,0.39981 -0.11759,0.16463 -0.28222,0.28223 -0.16463,0.11759 -0.3763,0.11759 -0.21167,0 -0.3763,-0.14111 -0.14111,-0.14111 -0.28222,-0.25871 -0.11759,-0.11759 -0.2587,-0.21166 -0.11759,-0.1176 -0.30574,-0.1176 -0.23519,0 -0.42334,0.16463 -0.18814,0.14111 -0.32926,0.35278 -0.14111,0.21167 -0.21166,0.42334 -0.0706,0.21166 -0.0706,0.32925 v 1.88149 q 0,0.44685 0,0.84666 0.0235,0.3763 0.11759,0.61149 0.0235,0.0705 0.14112,0.14111 0.11759,0.047 0.2587,0.0941 0.14111,0.0235 0.28222,0.047 0.14111,0 0.21167,0 0.047,0.0941 0.047,0.30574 0,0.21167 -0.047,0.28222 -0.47037,-0.047 -1.0113,-0.0705 -0.51741,-0.047 -1.0113,-0.047 -0.49388,0 -1.08185,0.047 -0.58796,0.0235 -1.05833,0.0705 -0.047,-0.0705 -0.047,-0.28222 0,-0.21167 0.047,-0.30574 0.0706,0 0.23518,0 0.16463,-0.0235 0.30574,-0.047 0.16463,-0.047 0.28223,-0.0941 0.14111,-0.0706 0.18815,-0.14111 0.0941,-0.23519 0.0941,-0.58797 0.0235,-0.35277 0.0235,-0.87018 v -1.78741 q 0,-0.047 0,-0.21167 0,-0.18815 -0.0235,-0.37629 -0.0235,-0.21167 -0.047,-0.39982 -0.0235,-0.18815 -0.0705,-0.28222 -0.047,-0.0941 -0.18815,-0.14111 -0.14111,-0.0706 -0.30574,-0.0941 -0.16463,-0.047 -0.30574,-0.047 -0.14111,-0.0235 -0.18815,-0.0235 -0.047,-0.0235 -0.047,-0.23519 0.0235,-0.23518 0.0706,-0.23518 0.8937,-0.0706 1.74037,-0.32926 0.84667,-0.28223 1.29352,-0.49389 z"
                            style="font-size:17.6389px"
                            id="path2892"/>
                    <path
                            d="m 165.34454,116.63063 q 0,-0.70556 0.32926,-1.38759 0.32926,-0.70556 0.89371,-1.24649 0.56444,-0.56444 1.29352,-0.8937 0.72907,-0.32926 1.5287,-0.32926 0.65852,0 1.05833,0.11759 0.39982,0.0941 0.51741,0.16463 0.11759,0.1176 0.21167,0.28223 0.0941,0.16463 0.0941,0.47037 0,0.32926 -0.23518,0.65852 -0.23519,0.30574 -0.65852,0.30574 -0.32926,0 -0.54093,-0.23519 -0.21166,-0.2587 -0.39981,-0.47037 -0.42334,-0.47037 -1.05834,-0.47037 -0.2587,0 -0.47037,0.21167 -0.18815,0.18814 -0.32926,0.49389 -0.14111,0.30574 -0.21166,0.70555 -0.0706,0.3763 -0.0706,0.72908 0,0.82314 0.21167,1.36407 0.21166,0.54093 0.54092,0.87019 0.32926,0.32926 0.70556,0.47037 0.39981,0.14111 0.77611,0.14111 0.68204,0 1.08185,-0.25871 0.39982,-0.2587 0.65852,-0.5174 0.0941,0.0235 0.14111,0.11759 0.047,0.0706 0.047,0.14111 0,0.0941 0,0.18815 0,0.0705 -0.047,0.11759 -0.11759,0.16463 -0.35277,0.42334 -0.23519,0.23518 -0.61149,0.49388 -0.35277,0.23519 -0.82314,0.42334 -0.47038,0.16463 -1.0113,0.16463 -0.65852,0 -1.24648,-0.21167 -0.58797,-0.23518 -1.03482,-0.65852 -0.44685,-0.42333 -0.72907,-1.01129 -0.25871,-0.61149 -0.25871,-1.36408 z"
                            style="font-size:17.6389px"
                            id="path2894"/>
                    <path
                            d="m 174.79898,108.94007 q 0.0706,0.0235 0.14111,0.11759 0.0706,0.0941 0.0941,0.16463 -0.047,0.28222 -0.0941,0.54093 -0.047,0.23518 -0.0705,0.51741 0,0.28222 0,0.5174 v 3.15149 0.0941 q 0.047,0 0.11759,-0.0705 0.16463,-0.18815 0.42333,-0.3763 0.25871,-0.21167 0.56445,-0.3763 0.30574,-0.18815 0.61148,-0.28222 0.32926,-0.11759 0.58796,-0.11759 0.65852,0 1.05834,0.23518 0.42333,0.21167 0.65852,0.68204 0.23518,0.44685 0.30574,1.12889 0.0941,0.68204 0.0941,1.59926 v 1.0113 q 0,0.51741 0,0.87018 0.0235,0.35278 0.11759,0.58797 0.0235,0.0705 0.14111,0.14111 0.14112,0.047 0.30575,0.0941 0.16463,0.0235 0.30574,0.047 0.16463,0 0.23518,0 0.047,0.0941 0.047,0.30574 0,0.21167 -0.047,0.28222 -0.47037,-0.047 -1.05833,-0.0705 -0.58797,-0.047 -1.05834,-0.047 -0.49389,0 -0.98777,0.047 -0.49389,0.0235 -0.96426,0.0705 -0.047,-0.0705 -0.047,-0.28222 0,-0.21167 0.047,-0.30574 0.16463,0 0.44685,-0.047 0.30574,-0.0705 0.37629,-0.23518 0.0941,-0.23519 0.0941,-0.58797 0.0235,-0.35277 0.0235,-0.87018 v -1.22297 q 0,-0.42333 -0.047,-0.79963 -0.047,-0.39981 -0.16463,-0.70555 -0.11759,-0.30574 -0.32926,-0.49389 -0.18815,-0.18815 -0.49389,-0.18815 -0.23518,0 -0.49389,0.0941 -0.23518,0.0941 -0.42333,0.23519 -0.18815,0.11759 -0.32926,0.28222 -0.11759,0.14111 -0.11759,0.25871 v 2.54 q 0,0.44685 0,0.84666 0.0235,0.3763 0.11759,0.61149 0.0235,0.0705 0.14111,0.14111 0.11759,0.047 0.2587,0.0941 0.14112,0.0235 0.25871,0.047 0.14111,0 0.21166,0 0.0706,0.0941 0.047,0.30574 0,0.21167 -0.047,0.28222 -0.44685,-0.047 -0.98777,-0.0705 -0.54093,-0.047 -1.0113,-0.047 -0.49389,0 -1.08185,0.047 -0.58797,0.0235 -1.05834,0.0705 -0.047,-0.0705 -0.047,-0.28222 0,-0.21167 0.047,-0.30574 0.0706,0 0.21167,0 0.16463,-0.0235 0.32926,-0.047 0.16463,-0.047 0.28222,-0.0941 0.14111,-0.0706 0.16463,-0.14111 0.11759,-0.23519 0.11759,-0.58797 0.0235,-0.35277 0.0235,-0.87018 v -6.39704 q 0,-0.18815 -0.0235,-0.3763 0,-0.18815 -0.0941,-0.3763 -0.0235,-0.0705 -0.16463,-0.11759 -0.11759,-0.047 -0.2587,-0.0706 -0.14112,-0.047 -0.28223,-0.0705 -0.14111,-0.0235 -0.21166,-0.0235 -0.047,0 -0.0706,-0.21167 0,-0.23518 0.0706,-0.28222 0.635,-0.0706 1.17592,-0.16463 0.54093,-0.0941 0.94074,-0.18815 0.39982,-0.11759 0.61149,-0.18814 0.23518,-0.0706 0.2587,-0.0706 z"
                            style="font-size:17.6389px"
                            id="path2896"/>
                </g>
                <g
                        aria-label="The Object Mother Factory"
                        id="g2944"
                        style="font-size:20.0498px;font-family:Yrsa;-inkscape-font-specification:'Yrsa, Normal';stroke:#37194a;stroke-width:0"
                        transform="translate(-1.8512608,37.318903)">
                    <path
                            d="m 103.6765,122.54803 h -1.48548 v 3.95335 h -0.59487 v -3.95335 h -1.47528 v -0.53368 h 3.55563 z"
                            style="font-size:6.9617px;font-family:Pagul;-inkscape-font-specification:'Pagul, Normal'"
                            id="path2900"/>
                    <path
                            d="m 107.69784,126.50138 h -1.64525 v -0.22435 q 0.0782,-0.007 0.17336,-0.0136 0.0952,-0.007 0.15637,-0.0272 0.0952,-0.0306 0.13937,-0.10538 0.0476,-0.0782 0.0476,-0.20056 v -1.72342 q 0,-0.35693 -0.16996,-0.55069 -0.16657,-0.19375 -0.40792,-0.19375 -0.17676,0 -0.32973,0.0578 -0.14956,0.0544 -0.26854,0.13597 -0.11557,0.085 -0.17676,0.16997 -0.0612,0.085 -0.0952,0.14277 v 1.92738 q 0,0.11558 0.0442,0.19036 0.0476,0.0748 0.14277,0.11558 0.0748,0.034 0.15297,0.051 0.0816,0.017 0.17676,0.0238 v 0.22435 h -1.64525 v -0.22435 q 0.0782,-0.007 0.16317,-0.0136 0.085,-0.0102 0.14277,-0.0272 0.0952,-0.0306 0.14277,-0.10538 0.0476,-0.0782 0.0476,-0.20056 v -3.90236 q 0,-0.11557 -0.0544,-0.23115 -0.051,-0.11557 -0.13597,-0.17336 -0.0612,-0.0442 -0.21755,-0.0612 -0.15297,-0.0204 -0.24815,-0.0272 v -0.21755 l 1.24073,-0.0782 0.0476,0.051 v 2.3387 h 0.0136 q 0.11217,-0.11218 0.20395,-0.19716 0.0918,-0.0884 0.24135,-0.18356 0.12917,-0.0816 0.30254,-0.13597 0.17676,-0.0544 0.39431,-0.0544 0.44871,0 0.69005,0.28554 0.24135,0.28214 0.24135,0.81583 v 1.74382 q 0,0.11897 0.0408,0.19376 0.0442,0.0714 0.14277,0.11217 0.0782,0.0306 0.13937,0.0476 0.0646,0.0136 0.16657,0.0204 z"
                            style="font-size:6.9617px;font-family:Pagul;-inkscape-font-specification:'Pagul, Normal'"
                            id="path2902"/>
                    <path
                            d="m 111.08691,125.61077 q -0.21076,0.40112 -0.56428,0.63907 -0.35353,0.23794 -0.81243,0.23794 -0.40451,0 -0.71044,-0.14277 -0.30254,-0.14276 -0.4997,-0.38751 -0.19715,-0.24475 -0.29573,-0.57108 -0.0952,-0.32633 -0.0952,-0.69005 0,-0.32633 0.10198,-0.63906 0.10537,-0.31613 0.30593,-0.56768 0.19376,-0.24135 0.4793,-0.38752 0.28893,-0.14956 0.64586,-0.14956 0.36712,0 0.62886,0.11557 0.26175,0.11558 0.42491,0.31613 0.15637,0.19036 0.23115,0.44871 0.0782,0.25834 0.0782,0.56088 v 0.22435 h -2.21972 q 0,0.32973 0.0612,0.59827 0.0646,0.26854 0.20056,0.4725 0.13257,0.19715 0.34672,0.31273 0.21415,0.11217 0.50989,0.11217 0.30254,0 0.52009,-0.13937 0.22095,-0.14276 0.42491,-0.50989 z m -0.75124,-1.17614 q 0,-0.19036 -0.034,-0.40792 -0.0306,-0.21755 -0.10198,-0.36372 -0.0782,-0.15636 -0.21416,-0.25494 -0.13597,-0.0986 -0.35012,-0.0986 -0.35692,0 -0.59487,0.29913 -0.23455,0.29574 -0.25495,0.82603 z"
                            style="font-size:6.9617px;font-family:Pagul;-inkscape-font-specification:'Pagul, Normal'"
                            id="path2904"/>
                    <path
                            d="m 115.40058,121.86818 q 0.4657,0 0.86001,0.16656 0.39432,0.16657 0.67985,0.4725 0.28554,0.30254 0.44531,0.73084 0.15976,0.42831 0.15976,0.9484 0,0.51669 -0.15976,0.945 -0.15637,0.4249 -0.44191,0.73424 -0.28214,0.30593 -0.67645,0.4759 -0.39432,0.16996 -0.86681,0.16996 -0.4725,0 -0.86682,-0.16657 -0.39431,-0.16996 -0.67985,-0.47589 -0.28554,-0.30594 -0.4453,-0.73424 -0.15637,-0.42831 -0.15637,-0.9484 0,-0.52349 0.15976,-0.9518 0.16317,-0.4283 0.44871,-0.73084 0.28554,-0.30593 0.67985,-0.4691 0.39432,-0.16656 0.86002,-0.16656 z m -0.003,4.20149 q 0.33652,0 0.61866,-0.12237 0.28214,-0.12577 0.4861,-0.35692 0.20396,-0.23455 0.31613,-0.57108 0.11558,-0.33653 0.11558,-0.76483 0,-0.42831 -0.11558,-0.76484 -0.11557,-0.33653 -0.31953,-0.56768 -0.20396,-0.23115 -0.4827,-0.35012 -0.27874,-0.12238 -0.60507,-0.12238 -0.33652,0 -0.61866,0.12238 -0.28214,0.12237 -0.4895,0.35692 -0.20395,0.23115 -0.31953,0.56768 -0.11557,0.33313 -0.11557,0.75804 0,0.4283 0.11217,0.76483 0.11558,0.33653 0.31953,0.57108 0.20396,0.23115 0.4827,0.35692 0.28214,0.12237 0.61527,0.12237 z"
                            style="font-size:6.9617px;font-family:Pagul;-inkscape-font-specification:'Pagul, Normal'"
                            id="path2906"/>
                    <path
                            d="m 121.48526,124.72016 q 0,0.75464 -0.47589,1.26793 -0.4759,0.51329 -1.10476,0.51329 -0.27535,0 -0.54389,-0.085 -0.26514,-0.085 -0.49969,-0.22775 l -0.25155,0.39091 -0.21075,-0.0476 q 0.017,-0.25154 0.0238,-0.60507 0.007,-0.35352 0.007,-0.68325 v -3.31768 q 0,-0.11558 -0.0544,-0.23115 -0.051,-0.11558 -0.13257,-0.16657 -0.0646,-0.0442 -0.21755,-0.0646 -0.14957,-0.0238 -0.24135,-0.0306 v -0.21755 l 1.23054,-0.0782 0.0476,0.051 v 2.20952 l 0.0238,0.007 q 0.21076,-0.22435 0.4589,-0.33653 0.25155,-0.11218 0.4929,-0.11218 0.61866,0 1.03337,0.4895 0.41471,0.48949 0.41471,1.27472 z m -0.71044,0.12578 q 0,-0.25155 -0.0544,-0.51329 -0.0544,-0.26175 -0.16996,-0.4555 -0.11558,-0.19716 -0.30254,-0.31953 -0.18696,-0.12238 -0.4487,-0.12238 -0.23795,0 -0.41811,0.0952 -0.17676,0.0918 -0.31953,0.25155 v 1.95118 q 0.0204,0.0816 0.0782,0.19036 0.0612,0.10877 0.16316,0.20735 0.10198,0.0952 0.23116,0.15637 0.12917,0.0578 0.31613,0.0578 0.41471,0 0.66965,-0.40111 0.25495,-0.40111 0.25495,-1.09796 z"
                            style="font-size:6.9617px;font-family:Pagul;-inkscape-font-specification:'Pagul, Normal'"
                            id="path2908"/>
                    <path
                            d="m 123.2019,126.26343 q 0,0.37392 -0.10878,0.70025 -0.10878,0.32973 -0.28894,0.54388 -0.19376,0.22776 -0.4385,0.34673 -0.24135,0.12237 -0.53369,0.12237 -0.30253,0 -0.4555,-0.12237 -0.15297,-0.11897 -0.15297,-0.28214 0,-0.14617 0.0816,-0.25834 0.0816,-0.10878 0.23795,-0.10878 0.10538,0 0.18696,0.0442 0.0816,0.0442 0.14277,0.11557 0.0544,0.0612 0.10878,0.14957 0.0578,0.0918 0.10877,0.17676 0.25835,0 0.36713,-0.31273 0.11217,-0.31273 0.11217,-1.00278 v -2.52226 q 0,-0.10878 -0.0544,-0.20735 -0.051,-0.10198 -0.13597,-0.16317 -0.0544,-0.0374 -0.26174,-0.0748 -0.20396,-0.0374 -0.30933,-0.0476 v -0.21076 l 1.34611,-0.0748 0.0476,0.0476 z m 0.051,-4.51423 q 0,0.19376 -0.12917,0.33993 -0.12577,0.14277 -0.31273,0.14277 -0.17336,0 -0.30254,-0.13597 -0.12577,-0.13937 -0.12577,-0.31613 0,-0.18696 0.12577,-0.32633 0.12918,-0.13937 0.30254,-0.13937 0.19376,0 0.31613,0.13257 0.12577,0.12917 0.12577,0.30253 z"
                            style="font-size:6.9617px;font-family:Pagul;-inkscape-font-specification:'Pagul, Normal'"
                            id="path2910"/>
                    <path
                            d="m 126.99208,125.61077 q -0.21076,0.40112 -0.56428,0.63907 -0.35352,0.23794 -0.81242,0.23794 -0.40452,0 -0.71045,-0.14277 -0.30254,-0.14276 -0.49969,-0.38751 -0.19716,-0.24475 -0.29574,-0.57108 -0.0952,-0.32633 -0.0952,-0.69005 0,-0.32633 0.10198,-0.63906 0.10538,-0.31613 0.30593,-0.56768 0.19376,-0.24135 0.4793,-0.38752 0.28894,-0.14956 0.64586,-0.14956 0.36712,0 0.62886,0.11557 0.26175,0.11558 0.42491,0.31613 0.15637,0.19036 0.23115,0.44871 0.0782,0.25834 0.0782,0.56088 v 0.22435 h -2.21973 q 0,0.32973 0.0612,0.59827 0.0646,0.26854 0.20056,0.4725 0.13257,0.19715 0.34672,0.31273 0.21416,0.11217 0.50989,0.11217 0.30254,0 0.52009,-0.13937 0.22095,-0.14276 0.42491,-0.50989 z m -0.75124,-1.17614 q 0,-0.19036 -0.034,-0.40792 -0.0306,-0.21755 -0.10198,-0.36372 -0.0782,-0.15636 -0.21415,-0.25494 -0.13597,-0.0986 -0.35013,-0.0986 -0.35692,0 -0.59487,0.29913 -0.23455,0.29574 -0.25495,0.82603 z"
                            style="font-size:6.9617px;font-family:Pagul;-inkscape-font-specification:'Pagul, Normal'"
                            id="path2912"/>
                    <path
                            d="m 128.92966,126.52178 q -0.72744,0 -1.13875,-0.4827 -0.41132,-0.4827 -0.41132,-1.29512 0,-0.35352 0.10878,-0.65946 0.11218,-0.30933 0.32293,-0.56088 0.20056,-0.24135 0.50309,-0.38751 0.30254,-0.14957 0.65946,-0.14957 0.4929,0 0.80223,0.23795 0.30933,0.23455 0.30933,0.64246 0,0.16996 -0.0816,0.30253 -0.0816,0.12918 -0.26854,0.12918 -0.20056,0 -0.31274,-0.10198 -0.10877,-0.10198 -0.10877,-0.22775 0,-0.15297 0.0408,-0.31274 0.0408,-0.16316 0.0476,-0.23794 -0.0612,-0.10538 -0.18356,-0.13937 -0.11898,-0.0374 -0.25835,-0.0374 -0.16316,0 -0.31273,0.0714 -0.14617,0.068 -0.28554,0.25494 -0.12577,0.16997 -0.20395,0.4589 -0.0782,0.28894 -0.0782,0.69006 0,0.63226 0.27874,1.03337 0.28214,0.39772 0.73765,0.39772 0.32972,0 0.55068,-0.15977 0.22435,-0.15976 0.41471,-0.4793 l 0.21755,0.14277 q -0.22435,0.40112 -0.59147,0.63567 -0.36712,0.23455 -0.75804,0.23455 z"
                            style="font-size:6.9617px;font-family:Pagul;-inkscape-font-specification:'Pagul, Normal'"
                            id="path2914"/>
                    <path
                            d="m 132.61107,126.28723 q -0.22095,0.0918 -0.41811,0.15636 -0.19716,0.0612 -0.4827,0.0612 -0.42151,0 -0.59487,-0.21075 -0.16996,-0.21416 -0.16996,-0.60167 v -2.27072 h -0.60507 v -0.32633 h 0.61866 v -1.04357 h 0.61867 v 1.04357 h 0.96199 v 0.32633 h -0.95519 v 1.873 q 0,0.21076 0.0136,0.35352 0.017,0.13937 0.0748,0.24475 0.0544,0.0986 0.16317,0.14957 0.10877,0.051 0.29233,0.051 0.085,0 0.24815,-0.0136 0.16656,-0.017 0.23455,-0.0408 z"
                            style="font-size:6.9617px;font-family:Pagul;-inkscape-font-specification:'Pagul, Normal'"
                            id="path2916"/>
                    <path
                            d="m 139.15126,126.50138 h -0.56768 v -3.81398 l -1.28152,3.81398 h -0.53369 l -1.27812,-3.81398 v 3.81398 h -0.56428 v -4.48703 h 0.89741 l 1.21014,3.73919 1.22373,-3.73919 h 0.89401 z"
                            style="font-size:6.9617px;font-family:Pagul;-inkscape-font-specification:'Pagul, Normal'"
                            id="path2918"/>
                    <path
                            d="m 143.16579,124.72356 q 0,0.35353 -0.11217,0.69685 -0.11218,0.33993 -0.31953,0.57788 -0.23455,0.27194 -0.54389,0.40451 -0.30933,0.13257 -0.69345,0.13257 -0.31953,0 -0.60847,-0.11897 -0.28893,-0.12237 -0.51328,-0.35352 -0.22096,-0.22776 -0.35353,-0.55409 -0.12917,-0.32972 -0.12917,-0.73764 0,-0.78523 0.4555,-1.28492 0.4589,-0.49969 1.19994,-0.49969 0.70365,0 1.15915,0.4759 0.4589,0.47249 0.4589,1.26112 z m -0.70364,0.0748 q 0,-0.25495 -0.051,-0.53709 -0.051,-0.28553 -0.15297,-0.48269 -0.10878,-0.21076 -0.28554,-0.33653 -0.17676,-0.12917 -0.43171,-0.12917 -0.26174,0 -0.4487,0.12917 -0.18356,0.12917 -0.29914,0.35352 -0.10877,0.20736 -0.15296,0.4725 -0.0442,0.26515 -0.0442,0.51329 0,0.32633 0.051,0.60507 0.0544,0.27534 0.16996,0.49289 0.11557,0.21756 0.28894,0.34333 0.17676,0.12237 0.4351,0.12237 0.42491,0 0.67306,-0.41131 0.24815,-0.41131 0.24815,-1.13535 z"
                            style="font-size:6.9617px;font-family:Pagul;-inkscape-font-specification:'Pagul, Normal'"
                            id="path2920"/>
                    <path
                            d="m 145.72204,126.28723 q -0.22095,0.0918 -0.41811,0.15636 -0.19715,0.0612 -0.48269,0.0612 -0.42151,0 -0.59487,-0.21075 -0.16997,-0.21416 -0.16997,-0.60167 v -2.27072 h -0.60507 v -0.32633 H 144.07 v -1.04357 h 0.61867 v 1.04357 h 0.96199 v 0.32633 h -0.95519 v 1.873 q 0,0.21076 0.0136,0.35352 0.017,0.13937 0.0748,0.24475 0.0544,0.0986 0.16316,0.14957 0.10878,0.051 0.29234,0.051 0.085,0 0.24814,-0.0136 0.16657,-0.017 0.23455,-0.0408 z"
                            style="font-size:6.9617px;font-family:Pagul;-inkscape-font-specification:'Pagul, Normal'"
                            id="path2922"/>
                    <path
                            d="m 149.69579,126.50138 h -1.64525 v -0.22435 q 0.0782,-0.007 0.17336,-0.0136 0.0952,-0.007 0.15637,-0.0272 0.0952,-0.0306 0.13937,-0.10538 0.0476,-0.0782 0.0476,-0.20056 v -1.72342 q 0,-0.35693 -0.16996,-0.55069 -0.16657,-0.19375 -0.40791,-0.19375 -0.17677,0 -0.32973,0.0578 -0.14957,0.0544 -0.26855,0.13597 -0.11557,0.085 -0.17676,0.16997 -0.0612,0.085 -0.0952,0.14277 v 1.92738 q 0,0.11558 0.0442,0.19036 0.0476,0.0748 0.14277,0.11558 0.0748,0.034 0.15297,0.051 0.0816,0.017 0.17676,0.0238 v 0.22435 h -1.64524 v -0.22435 q 0.0782,-0.007 0.16316,-0.0136 0.085,-0.0102 0.14277,-0.0272 0.0952,-0.0306 0.14277,-0.10538 0.0476,-0.0782 0.0476,-0.20056 v -3.90236 q 0,-0.11557 -0.0544,-0.23115 -0.051,-0.11557 -0.13597,-0.17336 -0.0612,-0.0442 -0.21755,-0.0612 -0.15297,-0.0204 -0.24815,-0.0272 v -0.21755 l 1.24073,-0.0782 0.0476,0.051 v 2.3387 h 0.0136 q 0.11218,-0.11218 0.20396,-0.19716 0.0918,-0.0884 0.24134,-0.18356 0.12918,-0.0816 0.30254,-0.13597 0.17676,-0.0544 0.39431,-0.0544 0.44871,0 0.69006,0.28554 0.24134,0.28214 0.24134,0.81583 v 1.74382 q 0,0.11897 0.0408,0.19376 0.0442,0.0714 0.14277,0.11217 0.0782,0.0306 0.13937,0.0476 0.0646,0.0136 0.16657,0.0204 z"
                            style="font-size:6.9617px;font-family:Pagul;-inkscape-font-specification:'Pagul, Normal'"
                            id="path2924"/>
                    <path
                            d="m 153.08486,125.61077 q -0.21076,0.40112 -0.56428,0.63907 -0.35353,0.23794 -0.81243,0.23794 -0.40451,0 -0.71044,-0.14277 -0.30254,-0.14276 -0.4997,-0.38751 -0.19715,-0.24475 -0.29573,-0.57108 -0.0952,-0.32633 -0.0952,-0.69005 0,-0.32633 0.10198,-0.63906 0.10537,-0.31613 0.30593,-0.56768 0.19376,-0.24135 0.4793,-0.38752 0.28893,-0.14956 0.64586,-0.14956 0.36712,0 0.62886,0.11557 0.26175,0.11558 0.42491,0.31613 0.15637,0.19036 0.23115,0.44871 0.0782,0.25834 0.0782,0.56088 v 0.22435 h -2.21972 q 0,0.32973 0.0612,0.59827 0.0646,0.26854 0.20056,0.4725 0.13257,0.19715 0.34672,0.31273 0.21415,0.11217 0.50989,0.11217 0.30254,0 0.52009,-0.13937 0.22095,-0.14276 0.42491,-0.50989 z m -0.75124,-1.17614 q 0,-0.19036 -0.034,-0.40792 -0.0306,-0.21755 -0.10198,-0.36372 -0.0782,-0.15636 -0.21416,-0.25494 -0.13597,-0.0986 -0.35012,-0.0986 -0.35692,0 -0.59487,0.29913 -0.23455,0.29574 -0.25495,0.82603 z"
                            style="font-size:6.9617px;font-family:Pagul;-inkscape-font-specification:'Pagul, Normal'"
                            id="path2926"/>
                    <path
                            d="m 156.03882,123.58141 q 0,0.17336 -0.085,0.30933 -0.085,0.13257 -0.26174,0.13257 -0.19036,0 -0.29234,-0.0986 -0.0986,-0.0986 -0.0986,-0.21756 0,-0.0748 0.0102,-0.13597 0.0136,-0.0612 0.0238,-0.12237 -0.15976,0 -0.37392,0.12917 -0.21415,0.12917 -0.36372,0.36712 v 1.95118 q 0,0.11898 0.0442,0.19376 0.0476,0.0748 0.14617,0.11218 0.085,0.034 0.21755,0.051 0.13597,0.017 0.23455,0.0238 v 0.22435 h -1.76762 v -0.22435 q 0.0782,-0.007 0.15977,-0.0136 0.085,-0.007 0.14617,-0.0272 0.0952,-0.0306 0.13937,-0.10538 0.0476,-0.0782 0.0476,-0.20056 v -2.07015 q 0,-0.10538 -0.051,-0.20736 -0.0476,-0.10197 -0.13597,-0.16316 -0.0646,-0.0408 -0.15297,-0.0578 -0.0884,-0.0204 -0.19036,-0.0272 v -0.22095 l 1.11496,-0.0748 0.0476,0.0476 v 0.4725 h 0.017 q 0.21075,-0.27534 0.4691,-0.41811 0.25834,-0.14277 0.4725,-0.14277 0.21415,0 0.34672,0.13937 0.13597,0.13937 0.13597,0.37392 z"
                            style="font-size:6.9617px;font-family:Pagul;-inkscape-font-specification:'Pagul, Normal'"
                            id="path2928"/>
                    <path
                            d="M 161.33828,122.54803 H 158.901 v 1.3869 h 2.11775 v 0.53369 H 158.901 v 2.03276 h -0.59487 v -4.48703 h 3.03215 z"
                            style="font-size:6.9617px;font-family:Pagul;-inkscape-font-specification:'Pagul, Normal'"
                            id="path2930"/>
                    <path
                            d="m 165.05708,126.37221 q -0.15977,0.0578 -0.28214,0.0952 -0.11898,0.034 -0.27194,0.034 -0.26515,0 -0.42491,-0.12237 -0.15637,-0.12578 -0.20056,-0.36372 h -0.0204 q -0.22095,0.24474 -0.47589,0.37392 -0.25155,0.12917 -0.60847,0.12917 -0.37732,0 -0.62207,-0.23115 -0.24135,-0.23115 -0.24135,-0.60507 0,-0.19376 0.0544,-0.34673 0.0544,-0.15296 0.16317,-0.27534 0.085,-0.10198 0.22435,-0.18016 0.13937,-0.0816 0.26174,-0.12917 0.15297,-0.0578 0.61867,-0.21416 0.4691,-0.15636 0.63226,-0.24474 v -0.33653 q 0,-0.0442 -0.0204,-0.16996 -0.017,-0.12578 -0.0782,-0.23795 -0.068,-0.12578 -0.19375,-0.21756 -0.12238,-0.0952 -0.35013,-0.0952 -0.15636,0 -0.29234,0.0544 -0.13257,0.051 -0.18696,0.10878 0,0.068 0.0306,0.20056 0.034,0.13257 0.034,0.24474 0,0.11898 -0.10878,0.21756 -0.10537,0.0986 -0.29573,0.0986 -0.16997,0 -0.25155,-0.11898 -0.0782,-0.12237 -0.0782,-0.27194 0,-0.15637 0.10878,-0.29914 0.11217,-0.14276 0.28893,-0.25494 0.15297,-0.0952 0.37052,-0.15977 0.21756,-0.068 0.42491,-0.068 0.28554,0 0.4963,0.0408 0.21415,0.0374 0.38751,0.16656 0.17336,0.12578 0.26175,0.34333 0.0918,0.21415 0.0918,0.55408 0,0.4861 -0.0102,0.86341 -0.0102,0.37392 -0.0102,0.81923 0,0.13257 0.0442,0.21075 0.0476,0.0782 0.14277,0.13257 0.051,0.0306 0.15977,0.034 0.11217,0.003 0.22775,0.003 z m -1.18635,-1.72683 q -0.28894,0.085 -0.50649,0.16656 -0.21755,0.0816 -0.40451,0.20396 -0.16997,0.11558 -0.26854,0.27534 -0.0986,0.15637 -0.0986,0.37392 0,0.28214 0.14617,0.41471 0.14956,0.13257 0.37731,0.13257 0.24135,0 0.42491,-0.11557 0.18356,-0.11898 0.30934,-0.27874 z"
                            style="font-size:6.9617px;font-family:Pagul;-inkscape-font-specification:'Pagul, Normal'"
                            id="path2932"/>
                    <path
                            d="m 166.94028,126.52178 q -0.72745,0 -1.13876,-0.4827 -0.41131,-0.4827 -0.41131,-1.29512 0,-0.35352 0.10878,-0.65946 0.11217,-0.30933 0.32293,-0.56088 0.20055,-0.24135 0.50309,-0.38751 0.30253,-0.14957 0.65946,-0.14957 0.49289,0 0.80222,0.23795 0.30934,0.23455 0.30934,0.64246 0,0.16996 -0.0816,0.30253 -0.0816,0.12918 -0.26854,0.12918 -0.20056,0 -0.31273,-0.10198 -0.10878,-0.10198 -0.10878,-0.22775 0,-0.15297 0.0408,-0.31274 0.0408,-0.16316 0.0476,-0.23794 -0.0612,-0.10538 -0.18356,-0.13937 -0.11897,-0.0374 -0.25834,-0.0374 -0.16317,0 -0.31273,0.0714 -0.14617,0.068 -0.28554,0.25494 -0.12578,0.16997 -0.20396,0.4589 -0.0782,0.28894 -0.0782,0.69006 0,0.63226 0.27874,1.03337 0.28214,0.39772 0.73764,0.39772 0.32973,0 0.55068,-0.15977 0.22435,-0.15976 0.41471,-0.4793 l 0.21755,0.14277 q -0.22435,0.40112 -0.59147,0.63567 -0.36712,0.23455 -0.75803,0.23455 z"
                            style="font-size:6.9617px;font-family:Pagul;-inkscape-font-specification:'Pagul, Normal'"
                            id="path2934"/>
                    <path
                            d="m 170.62168,126.28723 q -0.22095,0.0918 -0.41811,0.15636 -0.19716,0.0612 -0.4827,0.0612 -0.42151,0 -0.59487,-0.21075 -0.16996,-0.21416 -0.16996,-0.60167 v -2.27072 h -0.60507 v -0.32633 h 0.61867 v -1.04357 h 0.61866 v 1.04357 h 0.96199 v 0.32633 h -0.95519 v 1.873 q 0,0.21076 0.0136,0.35352 0.017,0.13937 0.0748,0.24475 0.0544,0.0986 0.16317,0.14957 0.10877,0.051 0.29233,0.051 0.085,0 0.24815,-0.0136 0.16656,-0.017 0.23455,-0.0408 z"
                            style="font-size:6.9617px;font-family:Pagul;-inkscape-font-specification:'Pagul, Normal'"
                            id="path2936"/>
                    <path
                            d="m 174.2215,124.72356 q 0,0.35353 -0.11217,0.69685 -0.11218,0.33993 -0.31953,0.57788 -0.23455,0.27194 -0.54389,0.40451 -0.30933,0.13257 -0.69345,0.13257 -0.31953,0 -0.60847,-0.11897 -0.28893,-0.12237 -0.51329,-0.35352 -0.22095,-0.22776 -0.35352,-0.55409 -0.12917,-0.32972 -0.12917,-0.73764 0,-0.78523 0.4555,-1.28492 0.4589,-0.49969 1.19994,-0.49969 0.70365,0 1.15915,0.4759 0.4589,0.47249 0.4589,1.26112 z m -0.70364,0.0748 q 0,-0.25495 -0.051,-0.53709 -0.051,-0.28553 -0.15297,-0.48269 -0.10878,-0.21076 -0.28554,-0.33653 -0.17676,-0.12917 -0.43171,-0.12917 -0.26174,0 -0.4487,0.12917 -0.18356,0.12917 -0.29914,0.35352 -0.10877,0.20736 -0.15296,0.4725 -0.0442,0.26515 -0.0442,0.51329 0,0.32633 0.051,0.60507 0.0544,0.27534 0.16996,0.49289 0.11557,0.21756 0.28894,0.34333 0.17676,0.12237 0.4351,0.12237 0.42491,0 0.67306,-0.41131 0.24815,-0.41131 0.24815,-1.13535 z"
                            style="font-size:6.9617px;font-family:Pagul;-inkscape-font-specification:'Pagul, Normal'"
                            id="path2938"/>
                    <path
                            d="m 177.27405,123.58141 q 0,0.17336 -0.085,0.30933 -0.085,0.13257 -0.26175,0.13257 -0.19036,0 -0.29234,-0.0986 -0.0986,-0.0986 -0.0986,-0.21756 0,-0.0748 0.0102,-0.13597 0.0136,-0.0612 0.0238,-0.12237 -0.15977,0 -0.37392,0.12917 -0.21415,0.12917 -0.36372,0.36712 v 1.95118 q 0,0.11898 0.0442,0.19376 0.0476,0.0748 0.14617,0.11218 0.085,0.034 0.21755,0.051 0.13597,0.017 0.23455,0.0238 v 0.22435 h -1.76762 v -0.22435 q 0.0782,-0.007 0.15977,-0.0136 0.085,-0.007 0.14616,-0.0272 0.0952,-0.0306 0.13937,-0.10538 0.0476,-0.0782 0.0476,-0.20056 v -2.07015 q 0,-0.10538 -0.051,-0.20736 -0.0476,-0.10197 -0.13597,-0.16316 -0.0646,-0.0408 -0.15296,-0.0578 -0.0884,-0.0204 -0.19036,-0.0272 v -0.22095 l 1.11496,-0.0748 0.0476,0.0476 v 0.4725 h 0.017 q 0.21076,-0.27534 0.4691,-0.41811 0.25835,-0.14277 0.4725,-0.14277 0.21415,0 0.34673,0.13937 0.13597,0.13937 0.13597,0.37392 z"
                            style="font-size:6.9617px;font-family:Pagul;-inkscape-font-specification:'Pagul, Normal'"
                            id="path2940"/>
                    <path
                            d="m 177.30464,127.56195 q 0,-0.16996 0.0918,-0.27874 0.0952,-0.10537 0.23455,-0.10537 0.10877,0 0.18696,0.0408 0.0782,0.0408 0.13937,0.10537 0.051,0.051 0.10877,0.13937 0.0578,0.0884 0.0918,0.14617 0.16997,-0.0918 0.40452,-0.47929 0.23794,-0.38752 0.34332,-0.67986 -0.32293,-0.80562 -0.58467,-1.44129 -0.26175,-0.63566 -0.54728,-1.31551 -0.0646,-0.15637 -0.21756,-0.24135 -0.15296,-0.0884 -0.30593,-0.11218 v -0.22435 h 1.52967 v 0.23795 q -0.10198,0.003 -0.24475,0.0442 -0.14277,0.0374 -0.14277,0.0884 0,0.0204 0.0136,0.068 0.017,0.0476 0.0374,0.0986 0.12917,0.33653 0.39432,0.9722 0.26514,0.63226 0.41131,1.01298 0.15296,-0.36372 0.31613,-0.75124 0.16656,-0.39092 0.37052,-0.9212 0.0238,-0.0646 0.068,-0.17676 0.0442,-0.11558 0.0442,-0.19716 0,-0.0884 -0.15637,-0.16317 -0.15297,-0.0782 -0.29234,-0.0952 v -0.21755 h 1.24413 v 0.21076 q -0.10197,0.017 -0.26854,0.11897 -0.16656,0.0986 -0.24814,0.28214 -0.40452,0.9382 -0.72065,1.70983 -0.31273,0.77163 -0.4759,1.13536 -0.21415,0.47589 -0.38411,0.74104 -0.16657,0.26854 -0.32633,0.42151 -0.15637,0.14276 -0.28554,0.19035 -0.12577,0.051 -0.26175,0.051 -0.26514,0 -0.41811,-0.12577 -0.14956,-0.12577 -0.14956,-0.28894 z"
                            style="font-size:6.9617px;font-family:Pagul;-inkscape-font-specification:'Pagul, Normal'"
                            id="path2942"/>
                </g>
            </g>
        </g>
    </g>
</svg>
