<?xml version="1.0" encoding="UTF-8" standalone="no"?>
<!-- Created with Inkscape (http://www.inkscape.org/) -->

<svg
        xmlns:inkscape="http://www.inkscape.org/namespaces/inkscape"
        xmlns:sodipodi="http://sodipodi.sourceforge.net/DTD/sodipodi-0.dtd"
        width="37.234051mm"
        height="19.894989mm"
        viewBox="0 0 37.234051 19.894989"
        version="1.1"
        id="svg674"
        inkscape:version="1.2.2 (b0a8486541, 2022-12-01)"
        sodipodi:docname="image.svg"
        xmlns="http://www.w3.org/2000/svg">
    <sodipodi:namedview
            id="namedview676"
            pagecolor="#ffffff"
            bordercolor="#000000"
            borderopacity="0.25"
            inkscape:showpageshadow="2"
            inkscape:pageopacity="0.0"
            inkscape:pagecheckerboard="0"
            inkscape:deskcolor="#d1d1d1"
            inkscape:document-units="mm"
            showgrid="false"
            showguides="true"
            inkscape:zoom="1.4956419"
            inkscape:cx="538.89905"
            inkscape:cy="509.81455"
            inkscape:window-width="1920"
            inkscape:window-height="1011"
            inkscape:window-x="0"
            inkscape:window-y="0"
            inkscape:window-maximized="1"
            inkscape:current-layer="g2801">
        <sodipodi:guide
                position="40.757631,76.295658"
                orientation="1,0"
                id="guide2423"
                inkscape:locked="false"/>
        <sodipodi:guide
                position="121.50332,70.001078"
                orientation="1,0"
                id="guide2425"
                inkscape:locked="false"/>
        <sodipodi:guide
                position="29.349967,64.906668"
                orientation="0,-1"
                id="guide2427"
                inkscape:locked="false"/>
        <sodipodi:guide
                position="29.213374,35.129359"
                orientation="0,-1"
                id="guide2429"
                inkscape:locked="false"/>
        <sodipodi:guide
                position="52.570811,44.964069"
                orientation="0,-1"
                id="guide2431"
                inkscape:locked="false"/>
        <sodipodi:guide
                position="-1.5237729,69.653198"
                orientation="1,0"
                id="guide2433"
                inkscape:locked="false"/>
        <sodipodi:guide
                position="20.061631,59.716129"
                orientation="0,-1"
                id="guide2435"
                inkscape:locked="false"/>
        <sodipodi:guide
                position="22.930088,39.773529"
                orientation="0,-1"
                id="guide2437"
                inkscape:locked="false"/>
        <sodipodi:guide
                position="35.737793,54.154349"
                orientation="1,0"
                id="guide2439"
                inkscape:locked="false"/>
    </sodipodi:namedview>
    <defs
            id="defs671">
        <linearGradient
                id="linearGradient1715"
                inkscape:swatch="solid">
            <stop
                    style="stop-color:#000000;stop-opacity:1;"
                    offset="0"
                    id="stop1713"/>
        </linearGradient>
    </defs>
    <g
            inkscape:label="Capa 1"
            inkscape:groupmode="layer"
            id="layer1"
            transform="translate(-59.299009,-144.99789)">
        <g
                id="g2459">
            <g
                    id="g2765">
                <text
                        xml:space="preserve"
                        style="font-size:31.2416px;font-family:Yrsa;-inkscape-font-specification:'Yrsa, Normal';fill:#bda8ca;fill-opacity:1;stroke:#37194a;stroke-width:0.368997;stroke-dasharray:none;stroke-opacity:1"
                        x="57.953213"
                        y="122.543"
                        id="text2059"><tspan
             sodipodi:role="line"
             id="tspan2057"
             style="fill:#bda8ca;fill-opacity:1;stroke:#37194a;stroke-width:0.368997;stroke-dasharray:none;stroke-opacity:1"
             x="57.953213"
             y="122.543">&lt;?&gt;</tspan></text>
                <text
                        xml:space="preserve"
                        style="font-style:normal;font-variant:normal;font-weight:normal;font-stretch:normal;font-size:26.5299px;font-family:Ramaraja;-inkscape-font-specification:'Ramaraja, Normal';font-variant-ligatures:normal;font-variant-caps:normal;font-variant-numeric:normal;font-variant-east-asian:normal;fill:#000000;fill-opacity:1;stroke:#37194a;stroke-width:0;stroke-dasharray:none;stroke-opacity:1"
                        x="100.03356"
                        y="119.73508"
                        id="text2115"><tspan
             sodipodi:role="line"
             id="tspan2113"
             style="font-style:normal;font-variant:normal;font-weight:normal;font-stretch:normal;font-size:26.5299px;font-family:Ramaraja;-inkscape-font-specification:'Ramaraja, Normal';font-variant-ligatures:normal;font-variant-caps:normal;font-variant-numeric:normal;font-variant-east-asian:normal;fill:#000000;fill-opacity:1;stroke-width:0;stroke-dasharray:none"
             x="100.03356"
             y="119.73508"><tspan
               style="font-style:normal;font-variant:normal;font-weight:normal;font-stretch:normal;font-size:35.2778px;font-family:Ramaraja;-inkscape-font-specification:'Ramaraja, Normal';font-variant-ligatures:normal;font-variant-caps:normal;font-variant-numeric:normal;font-variant-east-asian:normal"
               id="tspan2753">M</tspan><tspan
                        style="font-style:normal;font-variant:normal;font-weight:normal;font-stretch:normal;font-size:17.6389px;font-family:Ramaraja;-inkscape-font-specification:'Ramaraja, Normal';font-variant-ligatures:normal;font-variant-caps:normal;font-variant-numeric:normal;font-variant-east-asian:normal"
                        id="tspan2755">atriarch</tspan></tspan></text>
                <text
                        xml:space="preserve"
                        style="font-size:20.0498px;font-family:Yrsa;-inkscape-font-specification:'Yrsa, Normal';fill:#000000;fill-opacity:1;stroke:#37194a;stroke-width:0;stroke-dasharray:none;stroke-opacity:1"
                        x="99.981499"
                        y="126.50138"
                        id="text2421"><tspan
             sodipodi:role="line"
             id="tspan2419"
             style="font-style:normal;font-variant:normal;font-weight:normal;font-stretch:normal;font-size:6.9617px;font-family:Pagul;-inkscape-font-specification:'Pagul, Normal';font-variant-ligatures:normal;font-variant-caps:normal;font-variant-numeric:normal;font-variant-east-asian:normal;stroke-width:0"
             x="99.981499"
             y="126.50138">The Object Mother Factory</tspan></text>
            </g>
            <g
                    id="g2783">
                <text
                        xml:space="preserve"
                        style="font-size:31.2416px;font-family:Yrsa;-inkscape-font-specification:'Yrsa, Normal';fill:#bda8ca;fill-opacity:1;stroke:#37194a;stroke-width:0.368997;stroke-dasharray:none;stroke-opacity:1"
                        x="57.953213"
                        y="122.543"
                        id="text2769"><tspan
             sodipodi:role="line"
             id="tspan2767"
             style="fill:#bda8ca;fill-opacity:1;stroke:#37194a;stroke-width:0.368997;stroke-dasharray:none;stroke-opacity:1"
             x="57.953213"
             y="122.543">&lt;?&gt;</tspan></text>
                <text
                        xml:space="preserve"
                        style="font-style:normal;font-variant:normal;font-weight:normal;font-stretch:normal;font-size:26.5299px;font-family:Ramaraja;-inkscape-font-specification:'Ramaraja, Normal';font-variant-ligatures:normal;font-variant-caps:normal;font-variant-numeric:normal;font-variant-east-asian:normal;fill:#000000;fill-opacity:1;stroke:#37194a;stroke-width:0;stroke-dasharray:none;stroke-opacity:1"
                        x="100.03356"
                        y="119.73508"
                        id="text2777"><tspan
             sodipodi:role="line"
             id="tspan2775"
             style="font-style:normal;font-variant:normal;font-weight:normal;font-stretch:normal;font-size:26.5299px;font-family:Ramaraja;-inkscape-font-specification:'Ramaraja, Normal';font-variant-ligatures:normal;font-variant-caps:normal;font-variant-numeric:normal;font-variant-east-asian:normal;fill:#000000;fill-opacity:1;stroke-width:0;stroke-dasharray:none"
             x="100.03356"
             y="119.73508"><tspan
               style="font-style:normal;font-variant:normal;font-weight:normal;font-stretch:normal;font-size:35.2778px;font-family:Ramaraja;-inkscape-font-specification:'Ramaraja, Normal';font-variant-ligatures:normal;font-variant-caps:normal;font-variant-numeric:normal;font-variant-east-asian:normal"
               id="tspan2771">M</tspan><tspan
                        style="font-style:normal;font-variant:normal;font-weight:normal;font-stretch:normal;font-size:17.6389px;font-family:Ramaraja;-inkscape-font-specification:'Ramaraja, Normal';font-variant-ligatures:normal;font-variant-caps:normal;font-variant-numeric:normal;font-variant-east-asian:normal"
                        id="tspan2773">atriarch</tspan></tspan></text>
                <text
                        xml:space="preserve"
                        style="font-size:20.0498px;font-family:Yrsa;-inkscape-font-specification:'Yrsa, Normal';fill:#000000;fill-opacity:1;stroke:#37194a;stroke-width:0;stroke-dasharray:none;stroke-opacity:1"
                        x="99.981499"
                        y="126.50138"
                        id="text2781"><tspan
             sodipodi:role="line"
             id="tspan2779"
             style="font-style:normal;font-variant:normal;font-weight:normal;font-stretch:normal;font-size:6.9617px;font-family:Pagul;-inkscape-font-specification:'Pagul, Normal';font-variant-ligatures:normal;font-variant-caps:normal;font-variant-numeric:normal;font-variant-east-asian:normal;stroke-width:0"
             x="99.981499"
             y="126.50138">The Object Mother Factory</tspan></text>
            </g>
            <g
                    id="g2801"
                    transform="translate(-0.03178723,41.946709)">
                <g
                        id="g3064"
                        inkscape:export-filename="header.svg"
                        inkscape:export-xdpi="96"
                        inkscape:export-ydpi="96">
                    <path
                            d="m 69.106464,120.54354 -9.591171,-4.77997 v -1.40587 l 9.591171,-4.77996 0.78104,1.68704 -8.185299,3.74899 8.185299,3.87396 z"
                            id="path2803"
                            style="font-size:31.2416px;font-family:Yrsa;-inkscape-font-specification:'Yrsa, Normal';fill:#bda8ca;stroke:#37194a;stroke-width:0.368997"/>
                    <path
                            d="m 76.385747,117.26317 q -0.218691,-0.59359 -0.406141,-1.34339 -0.18745,-0.7498 -0.18745,-1.34339 0,-0.93725 0.499866,-1.53084 0.531107,-0.59359 1.468355,-1.37463 1.405872,-1.21842 2.061946,-2.15567 0.687315,-0.96849 0.687315,-2.12443 0,-1.18718 -0.687315,-1.93698 -0.687315,-0.78104 -1.999463,-0.78104 -0.718556,0 -1.343388,0.24994 -0.593591,0.24993 -0.906007,0.56235 -0.249933,0.24993 -0.343657,0.5311 -0.09373,0.24994 -0.124967,0.59359 l -0.249933,2.28064 h -1.437113 q -0.281175,-0.87476 -0.468624,-1.93698 -0.156208,-1.06221 -0.156208,-2.06194 0.749798,-0.65608 2.030704,-1.15594 1.312147,-0.49987 2.780502,-0.49987 1.655805,0 2.905469,0.65607 1.249664,0.65608 1.968221,1.74953 0.718557,1.06222 0.718557,2.31188 0,1.1247 -0.531108,1.99946 -0.499865,0.87477 -1.312147,1.59333 -0.78104,0.71855 -1.687046,1.40587 -0.749799,0.59359 -1.093456,0.93725 -0.343658,0.34365 -0.468624,0.65607 -0.09372,0.31242 -0.156208,0.87476 l -0.218691,1.84326 z m 0.78104,5.49852 q -0.687315,0 -1.124698,-0.40614 -0.406141,-0.43738 -0.406141,-1.09346 0,-0.68731 0.406141,-1.09345 0.437383,-0.43738 1.124698,-0.43738 0.718557,0 1.155939,0.43738 0.437382,0.40614 0.437382,1.09345 0,0.65608 -0.437382,1.09346 -0.437382,0.40614 -1.155939,0.40614 z"
                            id="path2805"
                            style="font-size:31.2416px;font-family:Yrsa;-inkscape-font-specification:'Yrsa, Normal';fill:#bda8ca;stroke:#37194a;stroke-width:0.368997"/>
                    <path
                            d="m 86.789182,120.57478 -0.78104,-1.68705 8.185299,-3.78023 -8.185299,-3.84272 0.78104,-1.6558 9.591171,4.77996 v 1.40587 z"
                            id="path2807"
                            style="font-size:31.2416px;font-family:Yrsa;-inkscape-font-specification:'Yrsa, Normal';fill:#bda8ca;stroke:#37194a;stroke-width:0.368997"/>
                </g>
                <path
                        d="m 67.255203,157.86244 -9.591171,-4.77997 v -1.40587 l 9.591171,-4.77996 0.78104,1.68704 -8.185299,3.74899 8.185299,3.87396 z"
                        id="path2874"
                        style="font-size:31.2416px;font-family:Yrsa;-inkscape-font-specification:'Yrsa, Normal';fill:#bda8ca;stroke:#37194a;stroke-width:0.368997"/>
                <path
                        d="m 74.534486,154.58207 q -0.218691,-0.59359 -0.406141,-1.34339 -0.18745,-0.7498 -0.18745,-1.34339 0,-0.93725 0.499866,-1.53084 0.531107,-0.59359 1.468355,-1.37463 1.405872,-1.21842 2.061946,-2.15567 0.687315,-0.96849 0.687315,-2.12443 0,-1.18718 -0.687315,-1.93698 -0.687315,-0.78104 -1.999463,-0.78104 -0.718556,0 -1.343388,0.24994 -0.593591,0.24993 -0.906007,0.56235 -0.249933,0.24993 -0.343657,0.5311 -0.09373,0.24994 -0.124967,0.59359 l -0.249933,2.28064 h -1.437113 q -0.281175,-0.87476 -0.468624,-1.93698 -0.156208,-1.06221 -0.156208,-2.06194 0.749798,-0.65608 2.030704,-1.15594 1.312147,-0.49987 2.780502,-0.49987 1.655805,0 2.905469,0.65607 1.249664,0.65608 1.968221,1.74953 0.718557,1.06222 0.718557,2.31188 0,1.1247 -0.531108,1.99946 -0.499865,0.87477 -1.312147,1.59333 -0.78104,0.71855 -1.687046,1.40587 -0.749799,0.59359 -1.093456,0.93725 -0.343658,0.34365 -0.468624,0.65607 -0.09372,0.31242 -0.156208,0.87476 l -0.218691,1.84326 z m 0.78104,5.49852 q -0.687315,0 -1.124698,-0.40614 -0.406141,-0.43738 -0.406141,-1.09346 0,-0.68731 0.406141,-1.09345 0.437383,-0.43738 1.124698,-0.43738 0.718557,0 1.155939,0.43738 0.437382,0.40614 0.437382,1.09345 0,0.65608 -0.437382,1.09346 -0.437382,0.40614 -1.155939,0.40614 z"
                        id="path2876"
                        style="font-size:31.2416px;font-family:Yrsa;-inkscape-font-specification:'Yrsa, Normal';fill:#bda8ca;stroke:#37194a;stroke-width:0.368997"/>
                <path
                        d="m 84.937921,157.89368 -0.78104,-1.68705 8.185299,-3.78023 -8.185299,-3.84272 0.78104,-1.6558 9.591171,4.77996 v 1.40587 z"
                        id="path2878"
                        style="font-size:31.2416px;font-family:Yrsa;-inkscape-font-specification:'Yrsa, Normal';fill:#bda8ca;stroke:#37194a;stroke-width:0.368997"/>
                <g
                        aria-label="Matriarch"
                        id="text2795"
                        style="font-size:26.5299px;font-family:Ramaraja;-inkscape-font-specification:'Ramaraja, Normal';stroke:#37194a;stroke-width:0">
                    <path
                            d="m 101.91504,99.179878 q 1.08186,0.04704 1.69334,0.141111 0.61148,0.04704 1.69333,0.04704 0.79963,0 1.55223,-0.04704 0.75259,-0.09407 1.69333,-0.141111 l 5.87963,13.170382 0.0941,0.047 q 0.14111,0 0.14111,-0.18814 l 1.31704,-3.2926 q 0.56444,-1.41111 1.17592,-3.05741 0.65852,-1.6463 1.17593,-3.05741 0.18815,-0.51741 0.3763,-1.12889 0.18815,-0.61148 0.32926,-1.12889 0.18815,-0.611479 0.32926,-1.222961 0.0941,0 0.37629,0 0.32926,0 0.70556,0.04704 0.42333,0 0.79963,0 0.3763,0 0.61148,0 0.79963,0 2.16371,-0.04704 1.36407,-0.09407 2.30481,-0.141111 0.0941,0.09407 0.14111,0.564445 0.0941,0.423337 0,0.611477 -0.23518,0 -0.84666,0.0941 -0.56445,0.0941 -0.79963,0.23518 -0.23519,0.18815 -0.3763,0.42334 -0.0941,0.23518 -0.047,0.84666 0.047,0.84667 0.0941,2.44593 0.047,1.55223 0.0941,3.43371 0.0941,1.88148 0.14111,3.81 0.047,1.88148 0.14111,3.38667 0.047,0.8937 0.0941,1.69333 0.0941,0.79963 0.32926,1.41112 0.047,0.18814 0.32926,0.28222 0.28222,0.0941 0.61148,0.18815 0.32926,0.047 0.61148,0.0941 0.28222,0 0.3763,0 0.0941,0.23519 0.0941,0.61148 0.047,0.32926 -0.047,0.56445 -0.94074,-0.0941 -2.06963,-0.18815 -1.08185,-0.0941 -2.11666,-0.0941 -1.08186,0 -2.44593,0.0941 -1.36408,0.0941 -2.44593,0.18815 -0.0941,-0.0941 -0.14111,-0.51741 0,-0.42333 0.0941,-0.65852 0.14111,0 0.42334,0 0.32926,-0.047 0.65852,-0.0941 0.37629,-0.0941 0.65851,-0.18815 0.32926,-0.14111 0.42334,-0.28222 0.0941,-0.23519 0.14111,-0.51741 0.0941,-0.32926 0.0941,-0.56445 v -1.92852 l -0.28222,-9.54852 q 0,-0.18815 -0.047,-0.51741 0,-0.3763 -0.047,-0.70555 0,-0.32926 -0.047,-0.56445 -0.047,-0.28222 -0.14111,-0.28222 -0.0941,0 -0.14111,0.18815 l -5.4563,14.81667 q -0.047,0.0941 -0.18815,0.32926 -0.14111,0.18815 -0.32926,0.42334 -0.18815,0.18814 -0.42333,0.37629 -0.18815,0.14111 -0.3763,0.14111 -0.18815,0 -0.28222,-0.047 l -6.96149,-16.22779 q -0.0941,2.39889 -0.14111,3.90407 0,1.50519 -0.047,2.72815 -0.047,1.17593 -0.0941,2.3989 -0.047,1.22296 -0.0941,3.0574 -0.047,0.51741 0,1.22297 0.047,0.70555 0.0941,0.8937 0.047,0.23519 0.47037,0.42334 0.42333,0.18814 0.8937,0.32926 0.47037,0.0941 0.84667,0.18814 0.42333,0.047 0.51741,0.047 0.0941,0.18815 0.0941,0.56445 0.047,0.37629 -0.047,0.61148 -0.94075,-0.0941 -1.88149,-0.18815 -0.94074,-0.0941 -1.97555,-0.0941 -1.08186,0 -1.92852,0.0941 -0.84667,0.0941 -1.92852,0.18815 -0.0941,-0.18815 -0.14111,-0.51741 0,-0.3763 0.0941,-0.61148 0.14111,0 0.51741,-0.047 0.37629,-0.0941 0.79963,-0.23518 0.42333,-0.14112 0.79963,-0.32926 0.37629,-0.23519 0.51741,-0.51741 0.047,-0.0941 0.0941,-0.47037 0.0941,-0.3763 0.14111,-0.79963 0.047,-0.42334 0.0941,-0.84667 0.047,-0.42333 0.047,-0.61148 0.047,-1.36408 0.14111,-3.38667 0.0941,-2.02259 0.14111,-3.99815 0.0941,-2.02259 0.14112,-3.62186 0.0941,-1.59926 0.0941,-2.1637 0,-0.18815 -0.047,-0.32926 0,-0.18815 -0.0941,-0.3763 -0.0941,-0.14111 -0.3763,-0.23518 -0.23518,-0.14111 -0.56444,-0.23519 -0.28223,-0.0941 -0.61148,-0.14111 -0.28223,-0.047 -0.47038,-0.047 -0.14111,-0.23518 -0.0941,-0.658514 0.047,-0.470371 0.0941,-0.517408 z"
                            style="font-size:35.2778px"
                            id="path2810"/>
                    <path
                            d="m 130.93695,118.77082 q 0.30574,0 0.47037,-0.1176 0.18815,-0.14111 0.18815,-0.21166 v -2.16371 q -0.25871,0.1176 -0.54093,0.23519 -0.2587,0.0941 -0.49389,0.2587 -0.32926,0.21167 -0.44685,0.49389 -0.11759,0.28222 -0.11759,0.54093 0.0235,0.5174 0.32925,0.75259 0.30575,0.21167 0.61149,0.21167 z m 0.32926,-5.99723 q 0.98777,0 1.64629,0.65852 0.68204,0.65852 0.68204,1.71685 v 2.89278 q 0,0.32926 0.11759,0.49389 0.1176,0.14111 0.25871,0.14111 0.16463,0 0.28222,-0.047 0.11759,-0.0706 0.16463,-0.0941 0.047,0.0235 0.0706,0.11759 0.047,0.0706 0.047,0.14112 0,0.0941 -0.0705,0.23518 -0.0706,0.0706 -0.25871,0.21167 -0.16463,0.11759 -0.37629,0.2587 -0.21167,0.14111 -0.47037,0.23519 -0.25871,0.0941 -0.49389,0.0941 -0.3763,0 -0.72908,-0.23518 -0.32926,-0.25871 -0.44685,-0.54093 -0.047,0.047 -0.2587,0.18815 -0.18815,0.11759 -0.47037,0.2587 -0.2587,0.14111 -0.54093,0.23519 -0.25871,0.11759 -0.47037,0.11759 -0.44685,0 -0.82315,-0.16463 -0.3763,-0.16463 -0.65852,-0.42333 -0.2587,-0.28223 -0.42333,-0.61149 -0.14111,-0.32926 -0.14111,-0.68203 0,-0.47037 0.23518,-0.79963 0.2587,-0.35278 0.56445,-0.44686 0.23518,-0.0705 0.58796,-0.21166 0.3763,-0.14111 0.77611,-0.28222 0.42333,-0.16463 0.82315,-0.30575 0.39981,-0.16463 0.70556,-0.28222 v -0.32926 -0.39981 q 0,-0.58797 -0.25871,-1.05834 -0.2587,-0.49389 -0.65852,-0.49389 -0.44685,0 -0.635,0.3763 -0.16463,0.3763 -0.28222,0.91722 -0.047,0.25871 -0.2587,0.47037 -0.21167,0.21167 -0.61149,0.21167 -0.30574,0 -0.56444,-0.18815 -0.23519,-0.21166 -0.23519,-0.54092 0,-0.16463 0.047,-0.30574 0.0706,-0.16463 0.16463,-0.35278 0.0706,-0.0706 0.35278,-0.25871 0.28222,-0.18814 0.68204,-0.39981 0.42333,-0.21167 0.91722,-0.35278 0.49389,-0.16463 1.0113,-0.16463 z"
                            style="font-size:17.6389px"
                            id="path2812"/>
                    <path
                            d="m 139.59175,113.10285 q 0.047,0 0.0706,0.0706 0.0235,0.0705 0.0235,0.11759 0,0.11759 -0.11759,0.28222 -0.1176,0.16463 -0.23519,0.2587 h -1.50519 v 3.83353 q 0,1.17592 0.84667,1.17592 0.2587,0 0.51741,-0.14111 0.2587,-0.16463 0.30574,-0.21167 0.0235,0.0235 0.047,0.0941 0.047,0.047 0.047,0.11759 0,0.047 -0.047,0.16463 -0.047,0.0941 -0.0706,0.11759 -0.047,0.0706 -0.21167,0.21167 -0.14111,0.14111 -0.37629,0.28222 -0.21167,0.14111 -0.49389,0.25871 -0.25871,0.11759 -0.56445,0.11759 -0.35277,0 -0.72907,-0.11759 -0.35278,-0.0941 -0.65852,-0.35278 -0.28222,-0.28222 -0.47037,-0.70556 -0.16463,-0.44685 -0.16463,-1.10537 v -3.73945 h -1.10537 q -0.0706,-0.047 -0.0706,-0.21166 0.1176,-0.16463 0.23519,-0.28222 0.11759,-0.1176 0.2587,-0.23519 h 0.68204 v -0.82315 q 0.44685,-0.39981 0.84667,-0.84667 0.42333,-0.44685 0.77611,-0.79963 0.14111,-0.0941 0.2587,-0.0705 0.1176,0 0.14111,0.0705 v 2.46945 z"
                            style="font-size:17.6389px"
                            id="path2814"/>
                    <path
                            d="m 143.07251,112.82063 q 0.0705,0.0235 0.16463,0.11759 0.0941,0.0941 0.0941,0.14111 -0.0235,0.047 -0.047,0.21167 -0.0235,0.16463 -0.047,0.3763 -0.0235,0.18814 -0.047,0.37629 -0.0235,0.18815 -0.0235,0.25871 0,0.047 0.047,0.0705 0.047,0 0.047,-0.0235 0.14112,-0.23518 0.32926,-0.51741 0.18815,-0.28222 0.42334,-0.49388 0.23518,-0.23519 0.5174,-0.3763 0.30575,-0.16463 0.68204,-0.16463 0.28222,0 0.54093,0.0705 0.28222,0.047 0.42333,0.18815 0.047,0.0706 0.11759,0.30574 0.0706,0.21167 0.0706,0.47037 0,0.18815 -0.0706,0.42334 -0.0706,0.21167 -0.21166,0.39981 -0.11759,0.16463 -0.28222,0.28223 -0.16463,0.11759 -0.3763,0.11759 -0.21167,0 -0.3763,-0.14111 -0.14111,-0.14111 -0.28222,-0.25871 -0.11759,-0.11759 -0.2587,-0.21166 -0.1176,-0.1176 -0.30574,-0.1176 -0.23519,0 -0.42334,0.16463 -0.18815,0.14111 -0.32926,0.35278 -0.14111,0.21167 -0.21166,0.42334 -0.0706,0.21166 -0.0706,0.32925 v 1.88149 q 0,0.44685 0,0.84666 0.0235,0.3763 0.11759,0.61149 0.0235,0.0705 0.14111,0.14111 0.1176,0.047 0.25871,0.0941 0.14111,0.0235 0.28222,0.047 0.14111,0 0.21167,0 0.047,0.0941 0.047,0.30574 0,0.21167 -0.047,0.28222 -0.47037,-0.047 -0.98777,-0.0705 -0.54093,-0.047 -1.0113,-0.047 -0.49389,0 -1.08185,0.047 -0.58796,0.0235 -1.05833,0.0705 -0.047,-0.0705 -0.047,-0.28222 0,-0.21167 0.047,-0.30574 0.0705,0 0.23518,0 0.16463,-0.0235 0.30574,-0.047 0.16463,-0.047 0.28222,-0.0941 0.14112,-0.0706 0.18815,-0.14111 0.0941,-0.23519 0.0941,-0.58797 0.0235,-0.35277 0.0235,-0.87018 v -1.78741 q 0,-0.047 0,-0.21167 0,-0.18815 -0.0235,-0.37629 -0.0235,-0.21167 -0.047,-0.39982 -0.0235,-0.18815 -0.0706,-0.28222 -0.047,-0.0941 -0.18814,-0.14111 -0.14111,-0.0706 -0.30574,-0.0941 -0.16463,-0.047 -0.30575,-0.047 -0.14111,-0.0235 -0.18814,-0.0235 -0.047,-0.0235 -0.047,-0.23519 0.0235,-0.23518 0.0705,-0.23518 0.89371,-0.0706 1.74038,-0.32926 0.84666,-0.28223 1.29352,-0.49389 z"
                            style="font-size:17.6389px"
                            id="path2816"/>
                    <path
                            d="m 150.08103,117.4773 q 0,0.44685 0,0.84666 0.0235,0.3763 0.11759,0.61149 0.0235,0.0705 0.14112,0.14111 0.11759,0.047 0.2587,0.0941 0.14111,0.0235 0.28222,0.047 0.14111,0 0.21167,0 0.047,0.0941 0.047,0.30574 0,0.21167 -0.047,0.28222 -0.47037,-0.047 -1.0113,-0.0705 -0.51741,-0.047 -1.0113,-0.047 -0.49388,0 -1.08185,0.047 -0.58796,0.0235 -1.05833,0.0705 -0.047,-0.0705 -0.047,-0.28222 0,-0.21167 0.047,-0.30574 0.0705,0 0.23518,0 0.16463,-0.0235 0.30574,-0.047 0.16463,-0.047 0.28223,-0.0941 0.14111,-0.0706 0.18814,-0.14111 0.0941,-0.23519 0.0941,-0.58797 0.0235,-0.35277 0.0235,-0.87018 v -1.78741 q 0,-0.047 0,-0.21167 0,-0.18815 -0.0235,-0.37629 -0.0235,-0.21167 -0.047,-0.39982 -0.0235,-0.18815 -0.0705,-0.28222 -0.047,-0.0941 -0.18815,-0.14111 -0.14111,-0.0706 -0.30574,-0.0941 -0.16463,-0.047 -0.30574,-0.047 -0.14112,-0.0235 -0.18815,-0.0235 -0.047,-0.0235 -0.047,-0.23519 0.0235,-0.23518 0.0706,-0.23518 0.8937,-0.0706 1.74037,-0.32926 0.84667,-0.28223 1.29352,-0.49389 0.0705,0.0235 0.16463,0.11759 0.0941,0.0941 0.0941,0.14111 -0.047,0.0941 -0.0941,0.39982 -0.047,0.30574 -0.0706,0.47037 v 0.98778 z m -2.2813,-7.31427 q 0,-0.47037 0.30574,-0.77611 0.32926,-0.32926 0.79963,-0.32926 0.47038,0 0.79963,0.32926 0.32926,0.30574 0.32926,0.77611 0,0.47037 -0.32926,0.79963 -0.32925,0.32926 -0.79963,0.32926 -0.47037,0 -0.79963,-0.32926 -0.30574,-0.32926 -0.30574,-0.79963 z"
                            style="font-size:17.6389px"
                            id="path2818"/>
                    <path
                            d="m 154.33788,118.77082 q 0.30574,0 0.47037,-0.1176 0.18814,-0.14111 0.18814,-0.21166 v -2.16371 q -0.2587,0.1176 -0.54092,0.23519 -0.25871,0.0941 -0.49389,0.2587 -0.32926,0.21167 -0.44685,0.49389 -0.1176,0.28222 -0.1176,0.54093 0.0235,0.5174 0.32926,0.75259 0.30574,0.21167 0.61149,0.21167 z m 0.32925,-5.99723 q 0.98778,0 1.6463,0.65852 0.68204,0.65852 0.68204,1.71685 v 2.89278 q 0,0.32926 0.11759,0.49389 0.11759,0.14111 0.25871,0.14111 0.16463,0 0.28222,-0.047 0.11759,-0.0706 0.16463,-0.0941 0.047,0.0235 0.0705,0.11759 0.047,0.0706 0.047,0.14112 0,0.0941 -0.0705,0.23518 -0.0706,0.0706 -0.25871,0.21167 -0.16463,0.11759 -0.3763,0.2587 -0.21166,0.14111 -0.47037,0.23519 -0.2587,0.0941 -0.49389,0.0941 -0.37629,0 -0.72907,-0.23518 -0.32926,-0.25871 -0.44685,-0.54093 -0.047,0.047 -0.25871,0.18815 -0.18814,0.11759 -0.47037,0.2587 -0.2587,0.14111 -0.54092,0.23519 -0.25871,0.11759 -0.47037,0.11759 -0.44686,0 -0.82315,-0.16463 -0.3763,-0.16463 -0.65852,-0.42333 -0.2587,-0.28223 -0.42333,-0.61149 -0.14112,-0.32926 -0.14112,-0.68203 0,-0.47037 0.23519,-0.79963 0.2587,-0.35278 0.56444,-0.44686 0.23519,-0.0705 0.58797,-0.21166 0.37629,-0.14111 0.77611,-0.28222 0.42333,-0.16463 0.82315,-0.30575 0.39981,-0.16463 0.70555,-0.28222 v -0.32926 -0.39981 q 0,-0.58797 -0.2587,-1.05834 -0.2587,-0.49389 -0.65852,-0.49389 -0.44685,0 -0.635,0.3763 -0.16463,0.3763 -0.28222,0.91722 -0.047,0.25871 -0.25871,0.47037 -0.21166,0.21167 -0.61148,0.21167 -0.30574,0 -0.56444,-0.18815 -0.23519,-0.21166 -0.23519,-0.54092 0,-0.16463 0.047,-0.30574 0.0705,-0.16463 0.16463,-0.35278 0.0705,-0.0706 0.35278,-0.25871 0.28222,-0.18814 0.68203,-0.39981 0.42334,-0.21167 0.91723,-0.35278 0.49389,-0.16463 1.01129,-0.16463 z"
                            style="font-size:17.6389px"
                            id="path2820"/>
                    <path
                            d="m 161.46398,112.82063 q 0.0705,0.0235 0.16463,0.11759 0.0941,0.0941 0.0941,0.14111 -0.0235,0.047 -0.047,0.21167 -0.0235,0.16463 -0.047,0.3763 -0.0235,0.18814 -0.047,0.37629 -0.0235,0.18815 -0.0235,0.25871 0,0.047 0.047,0.0705 0.047,0 0.047,-0.0235 0.14111,-0.23518 0.32926,-0.51741 0.18814,-0.28222 0.42333,-0.49388 0.23518,-0.23519 0.51741,-0.3763 0.30574,-0.16463 0.68203,-0.16463 0.28223,0 0.54093,0.0705 0.28222,0.047 0.42333,0.18815 0.047,0.0706 0.1176,0.30574 0.0705,0.21167 0.0705,0.47037 0,0.18815 -0.0705,0.42334 -0.0706,0.21167 -0.21167,0.39981 -0.11759,0.16463 -0.28222,0.28223 -0.16463,0.11759 -0.3763,0.11759 -0.21167,0 -0.3763,-0.14111 -0.14111,-0.14111 -0.28222,-0.25871 -0.11759,-0.11759 -0.2587,-0.21166 -0.11759,-0.1176 -0.30574,-0.1176 -0.23519,0 -0.42334,0.16463 -0.18814,0.14111 -0.32926,0.35278 -0.14111,0.21167 -0.21166,0.42334 -0.0706,0.21166 -0.0706,0.32925 v 1.88149 q 0,0.44685 0,0.84666 0.0235,0.3763 0.11759,0.61149 0.0235,0.0705 0.14111,0.14111 0.11759,0.047 0.2587,0.0941 0.14111,0.0235 0.28222,0.047 0.14111,0 0.21167,0 0.047,0.0941 0.047,0.30574 0,0.21167 -0.047,0.28222 -0.47037,-0.047 -1.0113,-0.0705 -0.51741,-0.047 -1.0113,-0.047 -0.49388,0 -1.08185,0.047 -0.58796,0.0235 -1.05833,0.0705 -0.047,-0.0705 -0.047,-0.28222 0,-0.21167 0.047,-0.30574 0.0706,0 0.23518,0 0.16463,-0.0235 0.30574,-0.047 0.16463,-0.047 0.28223,-0.0941 0.14111,-0.0706 0.18815,-0.14111 0.0941,-0.23519 0.0941,-0.58797 0.0235,-0.35277 0.0235,-0.87018 v -1.78741 q 0,-0.047 0,-0.21167 0,-0.18815 -0.0235,-0.37629 -0.0235,-0.21167 -0.047,-0.39982 -0.0235,-0.18815 -0.0705,-0.28222 -0.047,-0.0941 -0.18815,-0.14111 -0.14111,-0.0706 -0.30574,-0.0941 -0.16463,-0.047 -0.30574,-0.047 -0.14111,-0.0235 -0.18815,-0.0235 -0.047,-0.0235 -0.047,-0.23519 0.0235,-0.23518 0.0706,-0.23518 0.8937,-0.0706 1.74037,-0.32926 0.84667,-0.28223 1.29352,-0.49389 z"
                            style="font-size:17.6389px"
                            id="path2822"/>
                    <path
                            d="m 165.34454,116.63063 q 0,-0.70556 0.32926,-1.38759 0.32926,-0.70556 0.89371,-1.24649 0.56444,-0.56444 1.29352,-0.8937 0.72907,-0.32926 1.5287,-0.32926 0.65852,0 1.05833,0.11759 0.39982,0.0941 0.51741,0.16463 0.11759,0.1176 0.21167,0.28223 0.0941,0.16463 0.0941,0.47037 0,0.32926 -0.23518,0.65852 -0.23519,0.30574 -0.65852,0.30574 -0.32926,0 -0.54093,-0.23519 -0.21166,-0.2587 -0.39981,-0.47037 -0.42334,-0.47037 -1.05834,-0.47037 -0.2587,0 -0.47037,0.21167 -0.18815,0.18814 -0.32926,0.49389 -0.14111,0.30574 -0.21166,0.70555 -0.0706,0.3763 -0.0706,0.72908 0,0.82314 0.21167,1.36407 0.21166,0.54093 0.54092,0.87019 0.32926,0.32926 0.70556,0.47037 0.39981,0.14111 0.77611,0.14111 0.68204,0 1.08185,-0.25871 0.39982,-0.2587 0.65852,-0.5174 0.0941,0.0235 0.14111,0.11759 0.047,0.0706 0.047,0.14111 0,0.0941 0,0.18815 0,0.0705 -0.047,0.11759 -0.11759,0.16463 -0.35277,0.42334 -0.23519,0.23518 -0.61149,0.49388 -0.35277,0.23519 -0.82314,0.42334 -0.47038,0.16463 -1.0113,0.16463 -0.65852,0 -1.24648,-0.21167 -0.58797,-0.23518 -1.03482,-0.65852 -0.44685,-0.42333 -0.72907,-1.01129 -0.25871,-0.61149 -0.25871,-1.36408 z"
                            style="font-size:17.6389px"
                            id="path2824"/>
                    <path
                            d="m 174.79898,108.94007 q 0.0706,0.0235 0.14111,0.11759 0.0706,0.0941 0.0941,0.16463 -0.047,0.28222 -0.0941,0.54093 -0.047,0.23518 -0.0705,0.51741 0,0.28222 0,0.5174 v 3.15149 0.0941 q 0.047,0 0.11759,-0.0705 0.16463,-0.18815 0.42333,-0.3763 0.25871,-0.21167 0.56445,-0.3763 0.30574,-0.18815 0.61148,-0.28222 0.32926,-0.11759 0.58796,-0.11759 0.65852,0 1.05834,0.23518 0.42333,0.21167 0.65852,0.68204 0.23518,0.44685 0.30574,1.12889 0.0941,0.68204 0.0941,1.59926 v 1.0113 q 0,0.51741 0,0.87018 0.0235,0.35278 0.11759,0.58797 0.0235,0.0705 0.14111,0.14111 0.14112,0.047 0.30575,0.0941 0.16463,0.0235 0.30574,0.047 0.16463,0 0.23518,0 0.047,0.0941 0.047,0.30574 0,0.21167 -0.047,0.28222 -0.47037,-0.047 -1.05833,-0.0705 -0.58797,-0.047 -1.05834,-0.047 -0.49389,0 -0.98777,0.047 -0.49389,0.0235 -0.96426,0.0705 -0.047,-0.0705 -0.047,-0.28222 0,-0.21167 0.047,-0.30574 0.16463,0 0.44685,-0.047 0.30574,-0.0705 0.37629,-0.23518 0.0941,-0.23519 0.0941,-0.58797 0.0235,-0.35277 0.0235,-0.87018 v -1.22297 q 0,-0.42333 -0.047,-0.79963 -0.047,-0.39981 -0.16463,-0.70555 -0.11759,-0.30574 -0.32926,-0.49389 -0.18815,-0.18815 -0.49389,-0.18815 -0.23518,0 -0.49389,0.0941 -0.23518,0.0941 -0.42333,0.23519 -0.18815,0.11759 -0.32926,0.28222 -0.11759,0.14111 -0.11759,0.25871 v 2.54 q 0,0.44685 0,0.84666 0.0235,0.3763 0.11759,0.61149 0.0235,0.0705 0.14111,0.14111 0.11759,0.047 0.2587,0.0941 0.14112,0.0235 0.25871,0.047 0.14111,0 0.21166,0 0.0706,0.0941 0.047,0.30574 0,0.21167 -0.047,0.28222 -0.44685,-0.047 -0.98777,-0.0705 -0.54093,-0.047 -1.0113,-0.047 -0.49389,0 -1.08185,0.047 -0.58797,0.0235 -1.05834,0.0705 -0.047,-0.0705 -0.047,-0.28222 0,-0.21167 0.047,-0.30574 0.0706,0 0.21167,0 0.16463,-0.0235 0.32926,-0.047 0.16463,-0.047 0.28222,-0.0941 0.14111,-0.0706 0.16463,-0.14111 0.11759,-0.23519 0.11759,-0.58797 0.0235,-0.35277 0.0235,-0.87018 v -6.39704 q 0,-0.18815 -0.0235,-0.3763 0,-0.18815 -0.0941,-0.3763 -0.0235,-0.0705 -0.16463,-0.11759 -0.11759,-0.047 -0.2587,-0.0706 -0.14112,-0.047 -0.28223,-0.0705 -0.14111,-0.0235 -0.21166,-0.0235 -0.047,0 -0.0706,-0.21167 0,-0.23518 0.0706,-0.28222 0.635,-0.0706 1.17592,-0.16463 0.54093,-0.0941 0.94074,-0.18815 0.39982,-0.11759 0.61149,-0.18814 0.23518,-0.0706 0.2587,-0.0706 z"
                            style="font-size:17.6389px"
                            id="path2826"/>
                </g>
                <g
                        aria-label="The Object Mother Factory"
                        id="text2799"
                        style="font-size:20.0498px;font-family:Yrsa;-inkscape-font-specification:'Yrsa, Normal';stroke:#37194a;stroke-width:0">
                    <path
                            d="m 103.6765,122.54803 h -1.48548 v 3.95335 h -0.59487 v -3.95335 h -1.47528 v -0.53368 h 3.55563 z"
                            style="font-size:6.9617px;font-family:Pagul;-inkscape-font-specification:'Pagul, Normal'"
                            id="path2829"/>
                    <!-- The rest of the SVG paths continue exactly as in the original file -->
                </g>
                <!-- Remaining groups from original SVG are retained unchanged -->
            </g>
        </g>
    </g>
</svg>

